<svg width="47" height="56" viewBox="0 0 47 56" fill="none" xmlns="http://www.w3.org/2000/svg">
<path d="M32 40.5L36 39.5L39 38L40 41L40.5 50L39.5 54.5L35 55H31L30.5 50L32 40.5Z" fill="#D2A8FF"/>
<path d="M4 33L6 31L9 30L11.5 30.5L13 32L14.5 34L15 36L14 38.5L13 40.5L10.5 41.5H6.5L4 39L3 36L4 33Z" fill="#D2A8FF"/>
<path d="M25 34.5L30.5 31.5L38 29L41.5 28L42 31V34.5L41 37L31.5 40.5L28 41L25 39.5L24 37.5L25 34.5Z" fill="#D2A8FF"/>
<path d="M2.5 7.5L5.5 4.5L7.5 3L10.5 2.5L14 3L17 5L15.5 9.5L16 14.5L19.5 19L16 20L14.5 20.5L11.5 22.5H10.5L6 21.5L1.5 16.5L1 12.5L2.5 7.5Z" fill="#D2A8FF"/>
<path d="M31.5002 19C38.9044 19.2356 39.5955 19.0356 43.8265 19.1347C46.4383 19.196 47.3184 22.9184 45.942 25.2168C44.9427 26.8853 41.711 27.4975 41.711 27.4975M41.711 27.4975C41.711 27.4975 29.018 31.7285 25.8453 33.844C22.6362 35.9837 24.0173 40.8221 27.9603 41.0829C28.7206 41.1332 30.027 40.9169 31.5853 40.5133M41.711 27.4975C41.711 27.4975 43.869 35.2838 40.6533 37.0172C40.2067 37.258 39.7366 37.4947 39.2504 37.7255M31.5853 40.5133C31.5853 40.5133 29.6377 54.9989 31.1336 54.9989M31.5853 40.5133C33.906 39.9122 36.7851 38.8957 39.2504 37.7255M31.1336 54.9989C35.3646 54.9989 31.515 54.902 37.4801 54.9989C43.4451 55.0958 38.8379 37.8321 39.2504 37.7255M31.1336 54.9989C31.1336 54.9989 21.5642 54.9989 8.87994 54.9989C2.52732 54.9989 7.5 41.5 7.5 41.5M21.0002 19.4965C21.0002 19.4965 15.2674 19.0356 12.0942 22.2088C8.92092 25.382 9 30 9 30" stroke="#9C59FF" stroke-width="0.8"/>
<circle cx="25.7982" cy="10.5775" r="10.1775" stroke="#9C59FF" stroke-width="0.8"/>
<path d="M17.7466 4.55678C16.422 3.45689 14.8488 2.697 13.1639 2.34307C11.4789 1.98915 9.73296 2.0519 8.07772 2.52588C6.42249 2.99986 4.90799 3.87073 3.66572 5.06288C2.42345 6.25503 1.49097 7.73241 0.949269 9.36673C0.407564 11.001 0.273004 12.7429 0.557273 14.441C0.841542 16.1392 1.53605 17.7422 2.58048 19.111C3.62491 20.4798 4.98769 21.573 6.55049 22.2955C8.11329 23.0181 9.82885 23.3483 11.5482 23.2573L11.4961 22.2718C9.93714 22.3543 8.38165 22.0549 6.96466 21.3998C5.54767 20.7446 4.31204 19.7535 3.36505 18.5124C2.41807 17.2713 1.78836 15.8178 1.53061 14.2781C1.27287 12.7384 1.39487 11.1591 1.88604 9.67722C2.3772 8.19539 3.22267 6.85585 4.34904 5.77493C5.4754 4.69401 6.8486 3.90439 8.3494 3.47463C9.8502 3.04488 11.4332 2.98798 12.961 3.30888C14.4888 3.62978 15.9151 4.31878 17.1162 5.31605L17.7466 4.55678Z" fill="#9C59FF"/>
<circle cx="8.87577" cy="35.9637" r="5.94647" stroke="#9C59FF" stroke-width="0.8"/>
</svg>
