<svg width="36" height="36" viewBox="0 0 36 36" fill="none" xmlns="http://www.w3.org/2000/svg">
<path d="M28.4169 7.58333L26.5355 9.4648M1.13659 34.8647C-0.118304 33.6098 7.27372 23.1318 23.3089 3.42715C23.8804 2.72521 24.5906 2.14866 25.3949 1.73348C26.1993 1.31831 27.0806 1.07343 27.9838 1.01414C28.887 0.954852 29.7928 1.08243 30.6445 1.3889C31.4962 1.69537 32.2756 2.17416 32.934 2.79536C33.5924 3.41656 34.1156 4.16684 34.4711 4.99934C34.8265 5.83184 35.0065 6.72869 34.9998 7.63387C34.9931 8.53906 34.7999 9.43314 34.4322 10.2603C34.0645 11.0874 33.5302 11.8299 32.8627 12.4413C12.9668 28.6445 2.39148 36.1196 1.13659 34.8647Z" stroke="#56A88A" stroke-width="2" stroke-linecap="round" stroke-linejoin="round"/>
</svg>
