<svg width="30" height="22" viewBox="0 0 30 22" fill="none" xmlns="http://www.w3.org/2000/svg">
<path d="M29.4895 2.96663L11.0334 21.4893C10.8726 21.6511 10.6816 21.7796 10.4713 21.8672C10.261 21.9549 10.0355 22 9.80779 22C9.58006 22 9.35458 21.9549 9.14426 21.8672C8.93394 21.7796 8.74294 21.6511 8.58219 21.4893L0.507659 13.3856C0.346712 13.2241 0.219041 13.0323 0.131936 12.8213C0.0448319 12.6102 2.39831e-09 12.384 0 12.1556C-2.39831e-09 11.9272 0.044832 11.701 0.131936 11.4899C0.219041 11.2789 0.346712 11.0871 0.507659 10.9256C0.668607 10.764 0.85968 10.6359 1.06997 10.5485C1.28026 10.4611 1.50564 10.4161 1.73326 10.4161C1.96087 10.4161 2.18626 10.4611 2.39655 10.5485C2.60684 10.6359 2.79791 10.764 2.95886 10.9256L9.80923 17.8006L27.0411 0.50949C27.3662 0.183269 27.807 0 28.2667 0C28.7264 0 29.1673 0.183269 29.4923 0.50949C29.8174 0.835711 30 1.27816 30 1.73951C30 2.20085 29.8174 2.64331 29.4923 2.96953L29.4895 2.96663Z" fill="#9747FF"/>
</svg>
