<svg width="35" height="37" viewBox="0 0 35 37" fill="none" xmlns="http://www.w3.org/2000/svg">
<rect x="1" y="1" width="33" height="35" rx="4" stroke="#7529C7" stroke-width="2"/>
<path d="M15.1111 10.6786H31V12.4643H23.0556H15.1111V10.6786ZM5 11.5714C5 12.2778 5.22591 12.9683 5.64915 13.5556C6.0724 14.1429 6.67398 14.6007 7.37781 14.871C8.08165 15.1413 8.85612 15.212 9.60331 15.0742C10.3505 14.9364 11.0368 14.5963 11.5755 14.0968C12.1142 13.5973 12.4811 12.961 12.6297 12.2682C12.7783 11.5754 12.702 10.8573 12.4105 10.2047C12.119 9.55211 11.6253 8.99433 10.9918 8.60189C10.3584 8.20946 9.61368 8 8.85185 8C7.83063 8.00106 6.85156 8.37768 6.12945 9.04722C5.40733 9.71676 5.00115 10.6246 5 11.5714ZM8.85185 9.78571C9.23276 9.78571 9.60512 9.89044 9.92184 10.0867C10.2386 10.2829 10.4854 10.5618 10.6312 10.8881C10.7769 11.2144 10.8151 11.5734 10.7408 11.9198C10.6665 12.2662 10.483 12.5844 10.2137 12.8341C9.94434 13.0839 9.60117 13.2539 9.22758 13.3228C8.85399 13.3917 8.46675 13.3564 8.11483 13.2212C7.76291 13.0861 7.46213 12.8572 7.2505 12.5635C7.03888 12.2699 6.92593 11.9246 6.92593 11.5714C6.9265 11.098 7.12959 10.6441 7.49065 10.3093C7.85171 9.97455 8.34124 9.78625 8.85185 9.78571ZM15.1111 19.6071H31V21.3929H15.1111V19.6071ZM8.85185 24.0714C9.61368 24.0714 10.3584 23.862 10.9918 23.4695C11.6253 23.0771 12.119 22.5193 12.4105 21.8667C12.702 21.2141 12.7783 20.496 12.6297 19.8032C12.4811 19.1105 12.1142 18.4741 11.5755 17.9746C11.0368 17.4751 10.3505 17.135 9.60331 16.9972C8.85612 16.8594 8.08165 16.9301 7.37781 17.2004C6.67398 17.4707 6.0724 17.9285 5.64915 18.5158C5.22591 19.1031 5 19.7936 5 20.5C5.00115 21.4469 5.40733 22.3547 6.12945 23.0242C6.85156 23.6938 7.83063 24.0704 8.85185 24.0714ZM8.85185 18.7143C9.23276 18.7143 9.60512 18.819 9.92184 19.0152C10.2386 19.2114 10.4854 19.4903 10.6312 19.8166C10.7769 20.1429 10.8151 20.502 10.7408 20.8484C10.6665 21.1948 10.483 21.513 10.2137 21.7627C9.94434 22.0124 9.60117 22.1825 9.22758 22.2514C8.85399 22.3203 8.46675 22.2849 8.11483 22.1498C7.76291 22.0146 7.46213 21.7857 7.2505 21.4921C7.03888 21.1984 6.92593 20.8532 6.92593 20.5C6.9265 20.0266 7.12959 19.5727 7.49065 19.2379C7.85171 18.9031 8.34124 18.7148 8.85185 18.7143ZM15.1111 28.5357H31V30.3214H15.1111V28.5357ZM8.85185 33C9.61368 33 10.3584 32.7905 10.9918 32.3981C11.6253 32.0057 12.119 31.4479 12.4105 30.7953C12.702 30.1427 12.7783 29.4246 12.6297 28.7318C12.4811 28.039 12.1142 27.4027 11.5755 26.9032C11.0368 26.4037 10.3505 26.0636 9.60331 25.9258C8.85612 25.788 8.08165 25.8587 7.37781 26.129C6.67398 26.3993 6.0724 26.8571 5.64915 27.4444C5.22591 28.0317 5 28.7222 5 29.4286C5.00115 30.3754 5.40733 31.2832 6.12945 31.9528C6.85156 32.6223 7.83063 32.9989 8.85185 33ZM8.85185 27.6429C9.23276 27.6429 9.60512 27.7476 9.92184 27.9438C10.2386 28.14 10.4854 28.4189 10.6312 28.7452C10.7769 29.0715 10.8151 29.4306 10.7408 29.7769C10.6665 30.1233 10.483 30.4415 10.2137 30.6913C9.94434 30.941 9.60117 31.1111 9.22758 31.18C8.85399 31.2489 8.46675 31.2135 8.11483 31.0784C7.76291 30.9432 7.46213 30.7143 7.2505 30.4207C7.03888 30.127 6.92593 29.7818 6.92593 29.4286C6.9265 28.9551 7.12959 28.5012 7.49065 28.1665C7.85171 27.8317 8.34124 27.6434 8.85185 27.6429Z" fill="#7529C7"/>
<rect x="7" y="4" width="22" height="1" rx="0.5" fill="#7529C7"/>
</svg>
