<svg width="55" height="44" viewBox="0 0 55 44" fill="none" xmlns="http://www.w3.org/2000/svg">
<path d="M8 26.5L14.5 22L19.5 20L26 21.5L33 24H40.5L41.5 25.5L39.5 28L35 29L26 27.5L23.5 28.5L24 31L25.5 32L31 34L35 33.5L53.5 26.5L54 28L46.5 34L35.5 40.5L30.5 42L21.5 40L14.5 37L8.5 36L5 38L2.5 43L1 40L1.5 37.5L4 32L8 26.5Z" fill="url(#paint0_linear_1995_55)"/>
<path d="M20.8718 20.4426C11.5738 18.4298 -2.82871 37.8554 1.94454 42.5022C3.6712 44.1831 2.977 39.3756 6.76267 36.5706C10.5484 33.7656 20.5276 42.1806 30.508 41.8009C33.4601 41.6886 38.4236 40.0768 46.3391 33.7656C50.7047 30.8225 54.649 28.3078 53.9104 27.1038C52.1897 24.2988 36.3586 35.1681 30.1639 33.7656C26.5517 32.9478 23.2382 31.5116 23.625 29.2075C24.3106 25.1227 30.6016 29.7216 34.6379 29.2075C37.3911 28.8569 42.1682 28.5178 41.1824 24.2698C40.8382 22.7869 37.0405 24.5886 34.2994 24.2698C31.201 23.9095 30.1698 22.4554 20.8718 20.4426Z" stroke="#9C59FF"/>
<path d="M27 7.5L30 6.5L33 7.5L34.5 10L36 7.5L38.5 6.5L41 7L43 9.5L43.5 12.5L41.5 16.5L38.5 19.5L34.5 22.5L29.5 19L26.5 16L25 12.5L25.5 9.5L27 7.5Z" fill="#D2A8FF"/>
<path d="M34.3313 9.66185C33.2736 6.70549 27.8007 5.02736 25.6387 9.6615C23.2069 14.874 30.4489 20.0332 34.3313 22.3278" stroke="#9C59FF" stroke-linecap="round"/>
<path d="M34.3288 9.64623C35.3865 6.68987 40.8594 5.01174 43.0214 9.64587C45.4532 14.8584 38.2112 20.0176 34.3288 22.3121" stroke="#9C59FF" stroke-linecap="round"/>
<path d="M36.5856 2.81915C36.5856 4.09998 35.5472 5.1383 34.2664 5.1383C32.9856 5.1383 31.9473 4.09998 31.9473 2.81915C31.9473 1.53832 32.9856 0.5 34.2664 0.5C35.5472 0.5 36.5856 1.53832 36.5856 2.81915Z" fill="#D2A8FF" stroke="#9C59FF"/>
<defs>
<linearGradient id="paint0_linear_1995_55" x1="54.5" y1="25.5" x2="-6.5" y2="49" gradientUnits="userSpaceOnUse">
<stop offset="0.175987" stop-color="#D2A8FF"/>
<stop offset="1" stop-color="#9C59FF"/>
</linearGradient>
</defs>
</svg>
