<svg width="33" height="33" viewBox="0 0 33 33" fill="none" xmlns="http://www.w3.org/2000/svg">
<path d="M11.4952 1.25341C15.0604 0.0294627 18.9372 0.0631264 22.4806 1.3488C24.4266 2.07741 26.2095 3.18308 27.7271 4.60239C27.2115 5.15411 26.6675 5.66974 26.1416 6.20599C25.1413 7.20458 24.1418 8.19974 23.1432 9.19146C22.1478 8.2393 20.9435 7.53301 19.6266 7.12896C17.9415 6.62014 16.1488 6.5853 14.4452 7.02826C12.7416 7.47122 11.1929 8.37487 9.96898 9.64005C8.9007 10.7268 8.09166 12.0408 7.60227 13.484L2.25781 9.34614C4.1708 5.55259 7.48303 2.65082 11.4952 1.25341Z" fill="#E33629"/>
<path d="M0.841165 13.4508C1.12821 12.0271 1.60513 10.6483 2.25913 9.35156L7.60359 13.4998C6.90463 15.5587 6.90463 17.7907 7.60359 19.8497C5.82296 21.2247 4.04148 22.6066 2.25913 23.9953C0.622412 20.7374 0.123241 17.0254 0.841165 13.4508Z" fill="#F8BD00"/>
<path d="M16.8273 13.6172H32.1723C32.6969 16.4968 32.555 19.4583 31.7572 22.2745C31.0231 24.8642 29.597 27.2048 27.6322 29.0447C25.9075 27.6989 24.175 26.3634 22.4502 25.0177C23.3053 24.4409 24.0352 23.6974 24.596 22.8317C25.1569 21.9661 25.5372 20.9962 25.7141 19.98H16.8273C16.8247 17.8608 16.8273 15.739 16.8273 13.6172Z" fill="#587DBD"/>
<path d="M2.25586 23.9972C4.0382 22.6222 5.81969 21.2403 7.60031 19.8516C8.28921 21.8733 9.5994 23.6257 11.3438 24.8583C12.4316 25.6275 13.6679 26.1614 14.9738 26.4258C16.2604 26.6651 17.5801 26.6651 18.8667 26.4258C20.1497 26.2089 21.373 25.7259 22.458 25.0078C24.1828 26.3536 25.9153 27.6891 27.6401 29.0348C25.7526 30.7512 23.4517 31.9478 20.9627 32.5076C18.2155 33.1534 15.3525 33.1224 12.6199 32.4173C10.4587 31.8403 8.43994 30.823 6.69023 29.4293C4.83844 27.9588 3.32587 26.1059 2.25586 23.9972Z" fill="#319F43"/>
</svg>
