<svg width="26" height="45" viewBox="0 0 26 45" fill="none" xmlns="http://www.w3.org/2000/svg">
<path d="M10.5124 15.0436C10.0829 15.2927 9.5056 15.5326 8.86629 15.5326C8.30344 15.5322 7.74861 15.3859 7.24692 15.1055C7.09202 15.0188 6.8977 15.285 7.01598 15.4428C7.43843 16.0061 7.92565 16.5786 8.86629 16.5786C9.77737 16.5786 10.2392 15.9736 10.6673 15.4134L10.7096 15.3561C10.8293 15.2014 10.6659 14.9538 10.5124 15.0436ZM9.28452 10.7433L9.87313 13.0397C9.99986 13.507 9.69992 13.9882 9.28452 13.9882H8.39738C7.98338 13.9882 7.68344 13.507 7.81018 13.0397L8.40865 10.7433C8.43244 10.6354 8.48856 10.5394 8.56799 10.4707C8.64741 10.402 8.74553 10.3647 8.84658 10.3647C8.94763 10.3647 9.04575 10.402 9.12518 10.4707C9.2046 10.5394 9.26072 10.6354 9.28452 10.7433ZM12.5416 11.0868C12.5416 11.1951 12.5303 11.2988 12.5078 11.3978H12.8922C13.2161 11.3978 13.4836 11.0884 13.3597 10.7588C13.2243 10.3957 12.9936 10.0851 12.6971 9.86655C12.4006 9.64797 12.0516 9.53125 11.6946 9.53125C11.3375 9.53125 10.9885 9.64797 10.692 9.86655C10.3955 10.0851 10.1649 10.3957 10.0294 10.7588C9.93086 11.0218 10.0787 11.2709 10.3068 11.3622C10.2736 11.1925 10.2731 11.0169 10.3055 10.8469C10.3378 10.6769 10.4021 10.5163 10.4944 10.3753C10.5867 10.2343 10.7049 10.1162 10.8413 10.0285C10.9777 9.94081 11.1293 9.8855 11.2864 9.86616C11.4434 9.84681 11.6024 9.86386 11.7531 9.91619C11.9038 9.96853 12.0428 10.055 12.1612 10.17C12.2796 10.285 12.3748 10.426 12.4405 10.5839C12.5063 10.7419 12.5412 10.9132 12.543 11.0868M5.14173 11.0868C5.14173 11.1951 5.1544 11.2988 5.17693 11.3978H4.7925C4.46863 11.3978 4.20108 11.0884 4.325 10.7588C4.46043 10.3957 4.69107 10.0851 4.98759 9.86655C5.2841 9.64797 5.63309 9.53125 5.99014 9.53125C6.34719 9.53125 6.69618 9.64797 6.99269 9.86655C7.28921 10.0851 7.51985 10.3957 7.65528 10.7588C7.75385 11.0218 7.606 11.2709 7.37647 11.3622C7.41076 11.1921 7.41208 11.0159 7.38036 10.8451C7.34864 10.6744 7.28459 10.5128 7.19235 10.371C7.10012 10.2292 6.98178 10.1104 6.84501 10.0221C6.70824 9.93386 6.55611 9.87822 6.39849 9.85879C6.24088 9.83936 6.08131 9.85659 5.93015 9.90935C5.77898 9.96211 5.63962 10.0492 5.52109 10.165C5.40257 10.2809 5.30754 10.4228 5.24218 10.5816C5.17682 10.7404 5.1426 10.9125 5.14173 11.0868Z" fill="#9747FF"/>
<path d="M12.0432 11.3805C12.0879 11.2563 12.1015 11.1212 12.0827 10.9892C12.0639 10.8573 12.0133 10.7332 11.9362 10.63C11.9018 10.7032 11.8424 10.7585 11.7709 10.7836C11.6995 10.8087 11.6219 10.8016 11.5552 10.7638C11.4886 10.7261 11.4383 10.6608 11.4155 10.5823C11.3926 10.5038 11.3991 10.4185 11.4334 10.3453C11.3375 10.3365 11.241 10.3496 11.1499 10.3838C11.0587 10.4179 10.975 10.4723 10.9039 10.5436C10.8328 10.615 10.7759 10.7016 10.7366 10.7982C10.6974 10.8948 10.6767 10.9993 10.6759 11.105C10.6754 11.1992 10.6912 11.2927 10.7223 11.3805H12.0432ZM5.6417 11.4006C5.59636 11.2722 5.58291 11.1329 5.60271 10.9969C5.6225 10.8609 5.67485 10.7331 5.75437 10.6267C5.8339 10.5202 5.93775 10.4389 6.05528 10.3911C6.17281 10.3433 6.2998 10.3307 6.42323 10.3545C6.39808 10.4214 6.39501 10.4957 6.41456 10.5648C6.4341 10.6338 6.47503 10.6932 6.53024 10.7325C6.58544 10.7718 6.65144 10.7887 6.71678 10.7801C6.78212 10.7716 6.84267 10.7382 6.88792 10.6857C6.9519 10.7894 6.99199 10.9087 7.00474 11.0332C7.0175 11.1578 7.00254 11.2838 6.96114 11.4006H5.6417ZM12.5825 9.03614C12.4684 8.91234 12.2474 8.76534 11.9446 8.64773C11.6461 8.53168 11.2884 8.4543 10.9124 8.4543C10.8303 8.4543 10.7515 8.41844 10.6934 8.35459C10.6353 8.29075 10.6026 8.20416 10.6026 8.11387C10.6026 8.02358 10.6353 7.93699 10.6934 7.87315C10.7515 7.8093 10.8303 7.77344 10.9124 7.77344C11.363 7.77344 11.7897 7.86628 12.1502 8.00555C12.5051 8.14482 12.8163 8.33515 13.0162 8.55179C13.0482 8.58226 13.0741 8.61961 13.0925 8.66153C13.1108 8.70345 13.1211 8.74906 13.1228 8.79553C13.1245 8.84201 13.1175 8.88837 13.1022 8.93175C13.0869 8.97513 13.0638 9.01462 13.0341 9.04777C13.0044 9.08092 12.9688 9.10704 12.9296 9.12451C12.8904 9.14197 12.8483 9.15042 12.806 9.14933C12.7637 9.14824 12.722 9.13764 12.6836 9.11817C12.6451 9.0987 12.6107 9.07078 12.5825 9.03614ZM5.00099 9.03614C5.18732 8.86026 5.40439 8.72808 5.63888 8.64773C5.97025 8.52054 6.31865 8.45516 6.66965 8.4543C6.75182 8.4543 6.83061 8.41844 6.88871 8.35459C6.94681 8.29075 6.97945 8.20416 6.97945 8.11387C6.97945 8.02358 6.94681 7.93699 6.88871 7.87315C6.83061 7.8093 6.75182 7.77344 6.66965 7.77344C6.21904 7.77344 5.79237 7.86628 5.43329 8.00555C5.07844 8.14482 4.76724 8.33515 4.56728 8.55179C4.5353 8.58226 4.50934 8.61961 4.49101 8.66153C4.47268 8.70345 4.46236 8.74906 4.46068 8.79553C4.45901 8.84201 4.46602 8.88837 4.48128 8.93175C4.49654 8.97513 4.51974 9.01462 4.54942 9.04777C4.57911 9.08092 4.61466 9.10704 4.65389 9.12451C4.69312 9.14197 4.73518 9.15042 4.7775 9.14933C4.81981 9.14824 4.86147 9.13764 4.89991 9.11817C4.93835 9.0987 4.97275 9.07078 5.00099 9.03614Z" fill="#9747FF"/>
<path d="M1.6887 4.19378C2.01668 3.5581 2.54516 3.07643 3.17431 2.83978C3.83427 2.59842 4.3957 2.10913 4.75989 1.45793C5.00101 1.01477 5.34232 0.647663 5.75067 0.39225C6.15902 0.136838 6.62053 0.00180322 7.09039 0.00026066C7.47059 0.00026066 7.83108 0.0900111 8.16059 0.241659C8.38108 0.347535 8.61911 0.402188 8.85974 0.402188C9.10036 0.402188 9.33839 0.347535 9.55888 0.241659C10.1581 -0.0402498 10.8294 -0.0767725 11.451 0.138718C12.0726 0.354208 12.6034 0.807433 12.9469 1.41615C13.3242 2.08139 13.8963 2.58566 14.5691 2.84597C15.226 3.10009 15.7706 3.6189 16.0927 4.29746C16.3256 4.79031 16.4328 5.34319 16.403 5.89754C16.3733 6.45189 16.2077 6.98709 15.9237 7.44646C15.7379 7.74821 15.628 8.09947 15.6097 8.46002C16.0303 8.67361 16.391 9.00725 16.6542 9.42617C16.9175 9.84509 17.0736 10.3339 17.1064 10.8418C17.1392 11.3496 17.0474 11.8578 16.8407 12.3134C16.6339 12.7689 16.3197 13.1552 15.9308 13.4319V13.8064C15.9308 14.6482 15.5971 15.4219 15.0479 15.9434C14.7668 16.9929 14.2216 17.9338 13.475 18.6575C15.038 20.3829 16.0336 22.8774 16.0336 25.2774V26.5092C16.0367 26.6987 16.0994 26.8812 16.211 27.0256C16.3227 27.17 16.4764 27.2675 16.6461 27.3015C18.643 27.7387 20.4404 28.9227 21.7323 30.6522C23.0242 32.3817 23.7308 34.5496 23.732 36.7872V36.8491C24.1722 37.0014 24.5616 37.2933 24.8512 37.6881C25.1408 38.0829 25.3178 38.563 25.3598 39.0681L25.3626 39.0897V39.1098C25.395 39.6855 25.2542 40.2395 24.9796 40.6975C25.0236 41.0692 24.9934 41.447 24.891 41.8046C24.7886 42.1621 24.6165 42.4909 24.3868 42.768C24.3783 42.8175 24.3699 42.8654 24.3586 42.915L24.3558 42.9304C24.0882 44.156 23.0673 44.8755 22.0605 44.8755H20.596C20.5439 44.8755 19.6413 44.8786 19.1695 44.792C18.7541 44.7236 18.3408 44.64 17.9304 44.5413C16.6515 44.2379 15.3944 43.8324 14.1692 43.3281H5.19079C3.82769 43.3281 2.82086 42.1149 2.82086 40.6201V21.6889C2.82086 20.3675 3.33765 19.2827 4.17269 18.5864C3.4965 17.9058 2.99323 17.0434 2.71243 16.0842C2.3877 15.8215 2.12397 15.4783 1.94266 15.0825C1.76135 14.6867 1.66758 14.2495 1.66899 13.8064V13.3329C1.3063 13.0389 1.01971 12.646 0.837543 12.193C0.655378 11.74 0.58395 11.2426 0.630316 10.75C0.67668 10.2574 0.839233 9.78656 1.10191 9.38413C1.36458 8.9817 1.71828 8.66157 2.12805 8.45538C2.1072 8.09454 1.99824 7.74655 1.81262 7.44801C1.2226 6.51491 1.14234 5.25067 1.6887 4.19378ZM15.4365 42.1815C17.491 42.9444 19.0653 43.209 19.3596 43.2585L19.4019 43.2662C19.7398 43.3281 20.527 43.3281 20.5974 43.3281H22.0591C22.4956 43.3281 22.8899 43.0186 22.9885 42.5683C23.0282 42.3784 23.0185 42.1799 22.9603 41.9958C23.1456 41.9312 23.3072 41.803 23.4212 41.63C23.5353 41.4571 23.5958 41.2484 23.594 41.0348C23.594 40.8876 23.5651 40.7421 23.5092 40.6083C23.4533 40.4745 23.3717 40.3555 23.2701 40.2596C23.4534 40.2104 23.618 40.0994 23.7408 39.9419C23.8636 39.7845 23.9383 39.5887 23.9545 39.3822C23.9658 39.247 23.952 39.1108 23.9137 38.9817C23.8755 38.8526 23.8136 38.7335 23.732 38.6317C23.6424 38.5196 23.5322 38.4296 23.4086 38.3677C23.2851 38.3058 23.151 38.2734 23.0152 38.2727H21.2438L21.6662 37.8085C21.8353 37.6175 21.9299 37.3616 21.9299 37.0951C21.9299 36.8286 21.8353 36.5727 21.6662 36.3817C21.3142 35.9949 20.7227 35.9949 20.3707 36.3817L19.6131 37.2189C19.3315 37.5284 18.9231 37.6522 18.5288 37.5438C16.7855 37.0641 13.8749 36.0088 11.6261 33.8548C9.79827 32.1186 8.79989 29.8238 8.25071 27.8694V27.8539H3.18839C3.80798 30.8466 5.2274 34.8637 8.41969 37.9168C10.6812 40.0754 13.3144 41.3938 15.4365 42.1815ZM14.0946 7.79927C14.0946 5.81393 12.6498 4.22163 10.884 4.22163H9.39131C9.36315 4.22163 9.33499 4.2402 9.32372 4.2727L9.31809 4.28817L9.31246 4.30055C9.03514 4.98934 8.58195 5.57495 8.00784 5.98639C7.43372 6.39783 6.76333 6.61744 6.07792 6.61859H4.45291C3.95161 6.64954 3.54184 7.10758 3.52353 7.67858L3.60802 9.6469L2.99829 9.7645C2.71498 9.8224 2.46065 9.99195 2.28305 10.2413C2.10546 10.4907 2.01681 10.8027 2.03375 11.1188C2.05069 11.435 2.17206 11.7334 2.37506 11.9581C2.57807 12.1829 2.84876 12.3185 3.13629 12.3394L3.75869 12.3796L3.90092 14.8803C4.02893 15.9033 4.48991 16.8407 5.19851 17.519C5.90711 18.1972 6.81533 18.5704 7.75504 18.5693H9.96584C10.9053 18.57 11.8132 18.1967 12.5215 17.5185C13.2298 16.8402 13.6906 15.903 13.8186 14.8803C13.8326 14.6528 13.8664 13.9395 13.9059 13.0744L13.9397 12.3735L14.5776 12.341C14.8699 12.3243 15.1462 12.1892 15.3531 11.9616C15.5601 11.734 15.6828 11.4302 15.6977 11.109C15.7126 10.7877 15.6186 10.4718 15.4338 10.2223C15.249 9.97282 14.9865 9.8075 14.6972 9.75831L14.0946 9.66237V7.79927Z" fill="#9747FF"/>
</svg>
