<svg width="38" height="35" viewBox="0 0 38 35" fill="none" xmlns="http://www.w3.org/2000/svg">
<path d="M24.2326 13.6111C26.068 13.6111 27.5576 15.1356 27.5576 17.0139V26.2481C27.5576 28.5692 26.6566 30.7953 25.0528 32.4366C23.449 34.0779 21.2738 35 19.0057 35C16.7376 35 14.5624 34.0779 12.9586 32.4366C11.3548 30.7953 10.4538 28.5692 10.4538 26.2481V17.0139C10.4538 15.1356 11.9415 13.6111 13.7788 13.6111H24.2326ZM24.2326 16.5278H13.7788C13.6528 16.5278 13.532 16.579 13.4429 16.6702C13.3538 16.7613 13.3038 16.885 13.3038 17.0139V26.2481C13.3038 27.7957 13.9045 29.2799 14.9738 30.3742C16.0432 31.4685 17.4935 32.0833 19.0057 32.0833C20.5179 32.0833 21.9682 31.4685 23.0376 30.3742C24.1069 29.2799 24.7076 27.7957 24.7076 26.2481V17.0139C24.7076 16.885 24.6576 16.7613 24.5685 16.6702C24.4794 16.579 24.3586 16.5278 24.2326 16.5278ZM3.325 13.6111H9.7489C9.07858 14.4396 8.6692 15.4565 8.5747 16.5278H3.325C3.19902 16.5278 3.0782 16.579 2.98912 16.6702C2.90004 16.7613 2.85 16.885 2.85 17.0139V23.3314C2.84988 24.0662 3.01246 24.7914 3.32552 25.4527C3.63858 26.1139 4.09399 26.694 4.65753 27.1492C5.22107 27.6045 5.8781 27.9232 6.57925 28.0813C7.28041 28.2394 8.00746 28.2329 8.7058 28.0622C8.8673 29.0422 9.1618 29.9775 9.5665 30.8467C8.44033 31.155 7.25996 31.1941 6.11666 30.961C4.97336 30.7279 3.89775 30.2289 2.97302 29.5024C2.04829 28.776 1.2992 27.8416 0.78368 26.7715C0.268161 25.7015 2.33696e-05 24.5244 0 23.3314V17.0139C0 15.1356 1.4896 13.6111 3.325 13.6111ZM28.2625 13.6111H34.675C36.5104 13.6111 38 15.1356 38 17.0139V23.3333C38.0003 24.5256 37.7327 25.702 37.2179 26.7715C36.7032 27.8411 35.9551 28.7753 35.0314 29.5018C34.1077 30.2284 33.0331 30.7279 31.8907 30.9617C30.7484 31.1956 29.5687 31.1576 28.443 30.8506C28.8496 29.9794 29.1441 29.0442 29.3075 28.0642C30.005 28.2329 30.7307 28.2378 31.4303 28.0788C32.1299 27.9197 32.7853 27.6006 33.3473 27.1455C33.9093 26.6904 34.3635 26.1111 34.6757 25.4509C34.9878 24.7907 35.15 24.0668 35.15 23.3333V17.0139C35.15 16.885 35.1 16.7613 35.0109 16.6702C34.9218 16.579 34.801 16.5278 34.675 16.5278H29.4367C29.3422 15.4565 28.9328 14.4396 28.2625 13.6111ZM19 0C20.5117 0 21.9616 0.614582 23.0305 1.70854C24.0995 2.80251 24.7 4.28624 24.7 5.83333C24.7 7.38043 24.0995 8.86416 23.0305 9.95812C21.9616 11.0521 20.5117 11.6667 19 11.6667C17.4883 11.6667 16.0384 11.0521 14.9695 9.95812C13.9005 8.86416 13.3 7.38043 13.3 5.83333C13.3 4.28624 13.9005 2.80251 14.9695 1.70854C16.0384 0.614582 17.4883 0 19 0ZM31.35 1.94444C32.6098 1.94444 33.818 2.4566 34.7088 3.36823C35.5996 4.27987 36.1 5.51631 36.1 6.80556C36.1 8.0948 35.5996 9.33124 34.7088 10.2429C33.818 11.1545 32.6098 11.6667 31.35 11.6667C30.0902 11.6667 28.882 11.1545 27.9912 10.2429C27.1004 9.33124 26.6 8.0948 26.6 6.80556C26.6 5.51631 27.1004 4.27987 27.9912 3.36823C28.882 2.4566 30.0902 1.94444 31.35 1.94444ZM6.65 1.94444C7.90978 1.94444 9.11796 2.4566 10.0088 3.36823C10.8996 4.27987 11.4 5.51631 11.4 6.80556C11.4 8.0948 10.8996 9.33124 10.0088 10.2429C9.11796 11.1545 7.90978 11.6667 6.65 11.6667C5.39022 11.6667 4.18204 11.1545 3.29124 10.2429C2.40044 9.33124 1.9 8.0948 1.9 6.80556C1.9 5.51631 2.40044 4.27987 3.29124 3.36823C4.18204 2.4566 5.39022 1.94444 6.65 1.94444ZM19 2.91667C18.2441 2.91667 17.5192 3.22396 16.9847 3.77094C16.4503 4.31792 16.15 5.05979 16.15 5.83333C16.15 6.60688 16.4503 7.34875 16.9847 7.89573C17.5192 8.44271 18.2441 8.75 19 8.75C19.7559 8.75 20.4808 8.44271 21.0153 7.89573C21.5497 7.34875 21.85 6.60688 21.85 5.83333C21.85 5.05979 21.5497 4.31792 21.0153 3.77094C20.4808 3.22396 19.7559 2.91667 19 2.91667ZM31.35 4.86111C30.8461 4.86111 30.3628 5.06597 30.0065 5.43063C29.6502 5.79528 29.45 6.28986 29.45 6.80556C29.45 7.32125 29.6502 7.81583 30.0065 8.18048C30.3628 8.54514 30.8461 8.75 31.35 8.75C31.8539 8.75 32.3372 8.54514 32.6935 8.18048C33.0498 7.81583 33.25 7.32125 33.25 6.80556C33.25 6.28986 33.0498 5.79528 32.6935 5.43063C32.3372 5.06597 31.8539 4.86111 31.35 4.86111ZM6.65 4.86111C6.14609 4.86111 5.66282 5.06597 5.3065 5.43063C4.95018 5.79528 4.75 6.28986 4.75 6.80556C4.75 7.32125 4.95018 7.81583 5.3065 8.18048C5.66282 8.54514 6.14609 8.75 6.65 8.75C7.15391 8.75 7.63718 8.54514 7.9935 8.18048C8.34982 7.81583 8.55 7.32125 8.55 6.80556C8.55 6.28986 8.34982 5.79528 7.9935 5.43063C7.63718 5.06597 7.15391 4.86111 6.65 4.86111Z" fill="#9747FF"/>
</svg>
