<svg width="51" height="46" viewBox="0 0 51 46" fill="none" xmlns="http://www.w3.org/2000/svg">
<path d="M4.51996 4.58459C7.27357 1.79113 10.9668 0.157238 14.8587 0.0107707C18.7506 -0.135697 22.5531 1.21609 25.5032 3.7949C28.4507 1.22039 32.2482 -0.12988 36.1354 0.0144094C40.0226 0.158699 43.7126 1.7869 46.4667 4.57304C49.2208 7.35919 50.8357 11.0977 50.9881 15.04C51.1406 18.9823 49.8193 22.8376 47.2888 25.834L28.8572 44.5891C28.0104 45.4483 26.8747 45.9511 25.6777 45.9966C24.4808 46.0422 23.3111 45.6271 22.4032 44.8346L22.1421 44.5915L3.71291 25.834C1.18374 22.8402 -0.13818 18.9885 0.0114453 15.0489C0.161071 11.1093 1.77121 7.37213 4.51996 4.58459ZM7.87633 7.98892C5.93524 9.95829 4.81632 12.6101 4.75179 15.3941C4.68726 18.1781 5.68208 20.8803 7.52977 22.94L7.87633 23.3108L25.5008 41.1872L38.0884 28.4149L29.6975 19.9065L27.1814 22.4585C25.8461 23.8135 24.0349 24.575 22.1461 24.5754C20.2574 24.5759 18.4458 23.8153 17.1099 22.4609C15.774 21.1066 15.0233 19.2695 15.0228 17.3537C15.0224 15.438 15.7723 13.6005 17.1075 12.2455L22.097 7.18237C20.1113 5.57501 17.626 4.73792 15.0868 4.82132C12.5476 4.90471 10.1208 5.90312 8.24188 7.63741L7.87633 7.98892ZM28.0193 14.7976C28.4644 14.3462 29.0681 14.0927 29.6975 14.0927C30.3269 14.0927 30.9305 14.3462 31.3757 14.7976L41.4448 25.0106L43.1253 23.3108C45.0989 21.3104 46.2225 18.6062 46.2558 15.7764C46.2891 12.9466 45.2294 10.216 43.3034 8.16841C41.3774 6.12085 38.738 4.91893 35.9496 4.81969C33.1612 4.72046 30.4452 5.73179 28.3825 7.63741L28.0193 7.98892L20.4663 15.6499C20.0549 16.0669 19.8087 16.6226 19.7746 17.2116C19.7405 17.8005 19.9207 18.3817 20.2811 18.8447L20.4663 19.0542C20.8774 19.4715 21.4253 19.7212 22.006 19.7558C22.5866 19.7904 23.1596 19.6076 23.6161 19.242L23.8227 19.0542L28.0193 14.7976Z" fill="#9747FF"/>
</svg>
