<svg width="69" height="69" viewBox="0 0 69 69" fill="none" xmlns="http://www.w3.org/2000/svg">
<rect width="69" height="69" rx="5" fill="#EBEBEB"/>
<path opacity="0.5" d="M35 21.0746L33.767 22.1839C33.9249 22.3466 34.1158 22.4763 34.3279 22.565C34.54 22.6537 34.7688 22.6995 35 22.6995C35.2312 22.6995 35.46 22.6537 35.6721 22.565C35.8842 22.4763 36.0751 22.3466 36.233 22.1839L35 21.0746ZM29.2265 49.7222C25.964 47.1742 22.157 43.8311 19.178 40.1716C16.1652 36.4731 14.1875 32.6749 14.1875 29.1866H10.8125C10.8125 33.7734 13.355 38.2909 16.5207 42.1779C19.7202 46.1061 23.7433 49.6226 27.1003 52.2464L29.2265 49.7222ZM14.1875 29.1866C14.1875 22.8924 17.0405 19.0032 20.5685 17.6707C24.0898 16.3426 29.015 17.2916 33.767 22.1839L36.233 19.9652C30.86 14.4316 24.5352 12.6852 19.3378 14.6439C14.147 16.6026 10.8125 21.9802 10.8125 29.1866H14.1875ZM42.8975 52.2442C46.2568 49.6204 50.2797 46.1039 53.4792 42.1757C56.645 38.2887 59.1875 33.7712 59.1875 29.1822H55.8125C55.8125 32.6749 53.8325 36.4709 50.822 40.1694C47.843 43.8289 44.036 47.1721 40.7735 49.7201L42.8975 52.2442ZM59.1875 29.1822C59.1875 21.9781 55.853 16.6004 50.66 14.6439C45.4625 12.6831 39.14 14.4272 33.767 19.9631L36.233 22.1839C40.985 17.2916 45.9102 16.3404 49.4315 17.6686C52.9595 18.9989 55.8125 22.8902 55.8125 29.1822H59.1875ZM27.1003 52.2464C29.9578 54.4824 31.9445 56.1226 35 56.1226V52.8726C33.3733 52.8726 32.3608 52.1706 29.2265 49.7222L27.1003 52.2464ZM40.7735 49.7201C37.6392 52.1684 36.6267 52.8726 35 52.8726V56.1226C38.0555 56.1226 40.0422 54.4824 42.8997 52.2464L40.7735 49.7201Z" fill="#545454"/>
<path d="M49.625 28.4974H45.125M45.125 28.4974H40.625M45.125 28.4974V24.1641M45.125 28.4974V32.8307" stroke="#545454" stroke-width="1.5" stroke-linecap="round"/>
</svg>
