<svg width="41" height="40" viewBox="0 0 41 40" fill="none" xmlns="http://www.w3.org/2000/svg">
<path d="M20.5013 0C31.3172 0 40.0847 8.76746 40.0847 19.5833C40.0847 30.3992 31.3172 39.1667 20.5013 39.1667C17.0405 39.1723 13.6406 38.2564 10.6509 36.5131L0.92583 39.1667L3.5735 29.4377C1.8288 26.447 0.912214 23.0457 0.917996 19.5833C0.917996 8.76746 9.68546 0 20.5013 0ZM13.8273 10.3792L13.4357 10.3948C13.1821 10.4103 12.9343 10.4769 12.7072 10.5907C12.4947 10.711 12.3008 10.8614 12.1314 11.0372C11.8964 11.2585 11.7632 11.4504 11.6203 11.6364C10.8959 12.5782 10.5059 13.7344 10.5119 14.9225C10.5158 15.8821 10.7665 16.8162 11.1581 17.6896C11.9591 19.456 13.277 21.3262 15.016 23.0594C15.4351 23.4765 15.8464 23.8956 16.289 24.2853C18.4498 26.1877 21.0247 27.5597 23.809 28.292L24.9213 28.4624C25.2836 28.482 25.6459 28.4546 26.0101 28.437C26.5805 28.4075 27.1374 28.2531 27.6414 27.9846C27.8979 27.8525 28.1481 27.7087 28.3915 27.5537C28.3915 27.5537 28.4757 27.4989 28.6362 27.3775C28.9006 27.1817 29.0632 27.0426 29.2825 26.8135C29.445 26.6451 29.586 26.4473 29.6937 26.2221C29.8465 25.9029 29.9992 25.2938 30.0619 24.7866C30.1089 24.3989 30.0952 24.1874 30.0893 24.0562C30.0815 23.8466 29.9072 23.6292 29.7172 23.5372L28.5775 23.0261C28.5775 23.0261 26.8737 22.2839 25.8319 21.81C25.7229 21.7624 25.6061 21.7351 25.4872 21.7297C25.3533 21.7159 25.2179 21.731 25.0902 21.7739C24.9625 21.8168 24.8455 21.8865 24.747 21.9784C24.7372 21.9745 24.606 22.0861 23.1901 23.8016C23.1089 23.9108 22.9969 23.9933 22.8686 24.0387C22.7402 24.084 22.6013 24.0901 22.4695 24.0562C22.3419 24.022 22.2169 23.9788 22.0954 23.9269C21.8526 23.8251 21.7684 23.7859 21.6019 23.7154C20.478 23.2249 19.4373 22.5623 18.5175 21.7512C18.2708 21.5358 18.0417 21.3008 17.8067 21.0736C17.0362 20.3358 16.3648 19.5011 15.8092 18.5905L15.6936 18.4044C15.6106 18.2794 15.5435 18.1445 15.4939 18.003C15.4195 17.7151 15.6133 17.484 15.6133 17.484C15.6133 17.484 16.0892 16.9631 16.3105 16.6811C16.5259 16.4069 16.708 16.1406 16.8255 15.9506C17.0566 15.5785 17.1291 15.1967 17.0077 14.901C16.4593 13.5615 15.8914 12.2278 15.3078 10.904C15.1923 10.6416 14.8496 10.4536 14.5382 10.4164C14.4325 10.4046 14.3267 10.3929 14.221 10.385C13.958 10.372 13.6944 10.3746 13.4317 10.3929L13.8254 10.3772L13.8273 10.3792Z" fill="#545454"/>
</svg>
