<svg width="40" height="40" viewBox="0 0 40 40" fill="none" xmlns="http://www.w3.org/2000/svg">
<path d="M19.5833 0.0859375C8.8125 0.0859375 0 8.87885 0 19.7084C0 29.5001 7.1675 37.6272 16.5283 39.0959V25.3876H11.5542V19.7084H16.5283V15.3805C16.5283 10.4651 19.4463 7.7626 23.9308 7.7626C26.0654 7.7626 28.2979 8.13469 28.2979 8.13469V12.9718H25.8304C23.4021 12.9718 22.6383 14.4797 22.6383 16.0268V19.7084H28.0825L27.2013 25.3876H22.6383V39.0959C27.253 38.3671 31.4552 36.0126 34.4861 32.4573C37.5171 28.902 39.1771 24.3803 39.1667 19.7084C39.1667 8.87885 30.3542 0.0859375 19.5833 0.0859375Z" fill="#545454"/>
</svg>
