<svg width="41" height="40" viewBox="0 0 41 40" fill="none" xmlns="http://www.w3.org/2000/svg">
<path d="M22.5136 0.00240952C23.9427 -0.00307424 25.3718 0.0112884 26.8004 0.045493L27.1804 0.0592013C27.619 0.0748679 28.0518 0.0944512 28.5747 0.117951C30.6584 0.215868 32.0801 0.544868 33.3276 1.02858C34.6201 1.52599 35.7089 2.19966 36.7977 3.28849C37.7933 4.26689 38.5638 5.45039 39.0557 6.7567C39.5394 8.00416 39.8684 9.42787 39.9663 11.5115C39.9898 12.0325 40.0094 12.4672 40.0251 12.9059L40.0368 13.2858C40.0716 14.7138 40.0866 16.1422 40.0819 17.5706L40.0838 19.0315V21.597C40.0886 23.026 40.0736 24.4551 40.0388 25.8837L40.027 26.2637C40.0114 26.7023 39.9918 27.1351 39.9683 27.658C39.8704 29.7417 39.5374 31.1634 39.0557 32.4109C38.5654 33.7186 37.7947 34.903 36.7977 35.881C35.8185 36.8765 34.6344 37.647 33.3276 38.139C32.0801 38.6227 30.6584 38.9517 28.5747 39.0496C28.0518 39.0731 27.619 39.0927 27.1804 39.1084L26.8004 39.1201C25.3718 39.1549 23.9427 39.1699 22.5136 39.1652L21.0527 39.1671H18.4893C17.0602 39.1719 15.6311 39.1569 14.2025 39.1221L13.8226 39.1103C13.3577 39.0935 12.8929 39.0739 12.4282 39.0516C10.3446 38.9537 8.92281 38.6207 7.67339 38.139C6.36657 37.6481 5.18286 36.8775 4.20519 35.881C3.20848 34.9024 2.43725 33.7182 1.94527 32.4109C1.46156 31.1634 1.13256 29.7417 1.03465 27.658C1.01284 27.1933 0.993252 26.7285 0.975896 26.2637L0.966104 25.8837C0.929999 24.4551 0.913678 23.026 0.917146 21.597V17.5706C0.91168 16.1422 0.926043 14.7138 0.960229 13.2858L0.973937 12.9059C0.989604 12.4672 1.00919 12.0325 1.03269 11.5115C1.1306 9.42591 1.4596 8.00612 1.94331 6.7567C2.43558 5.44975 3.20832 4.26657 4.20715 3.29045C5.18415 2.29317 6.36711 1.52124 7.67339 1.02858C8.92281 0.544868 10.3426 0.215868 12.4282 0.117951L13.8226 0.0592013L14.2025 0.0494099C15.6305 0.0133233 17.0589 -0.00299792 18.4873 0.000451333L22.5136 0.00240952ZM20.5005 9.79408C19.2031 9.77573 17.915 10.0154 16.7111 10.4992C15.5071 10.983 14.4113 11.7013 13.4874 12.6122C12.5634 13.5232 11.8298 14.6087 11.329 15.8057C10.8282 17.0027 10.5703 18.2873 10.5703 19.5848C10.5703 20.8823 10.8282 22.1669 11.329 23.3638C11.8298 24.5608 12.5634 25.6463 13.4874 26.5573C14.4113 27.4683 15.5071 28.1865 16.7111 28.6703C17.915 29.1541 19.2031 29.3938 20.5005 29.3755C23.0974 29.3755 25.5879 28.3438 27.4242 26.5075C29.2605 24.6712 30.2921 22.1807 30.2921 19.5838C30.2921 16.9869 29.2605 14.4963 27.4242 12.66C25.5879 10.8237 23.0974 9.79408 20.5005 9.79408ZM20.5005 13.7107C21.2809 13.6964 22.0563 13.8376 22.7815 14.1263C23.5067 14.415 24.1671 14.8453 24.7242 15.3921C25.2812 15.9388 25.7237 16.5911 26.0258 17.3108C26.3279 18.0305 26.4836 18.8032 26.4837 19.5838C26.4838 20.3643 26.3284 21.1371 26.0266 21.8569C25.7247 22.5767 25.2824 23.2291 24.7256 23.7761C24.1687 24.323 23.5085 24.7535 22.7834 25.0425C22.0583 25.3314 21.2829 25.4729 20.5024 25.4588C18.9443 25.4588 17.45 24.8398 16.3482 23.738C15.2464 22.6363 14.6274 21.1419 14.6274 19.5838C14.6274 18.0256 15.2464 16.5313 16.3482 15.4295C17.45 14.3278 18.9443 13.7088 20.5024 13.7088L20.5005 13.7107ZM30.7817 6.85658C30.15 6.88186 29.5525 7.15062 29.1144 7.60656C28.6764 8.0625 28.4317 8.67026 28.4317 9.30253C28.4317 9.93481 28.6764 10.5426 29.1144 10.9985C29.5525 11.4544 30.15 11.7232 30.7817 11.7485C31.431 11.7485 32.0536 11.4906 32.5127 11.0315C32.9717 10.5724 33.2296 9.9498 33.2296 9.30058C33.2296 8.65135 32.9717 8.02871 32.5127 7.56964C32.0536 7.11056 31.431 6.85266 30.7817 6.85266V6.85658Z" fill="#545454"/>
</svg>
