<svg width="43" height="42" viewBox="0 0 43 42" fill="none" xmlns="http://www.w3.org/2000/svg">
<ellipse cx="21.5" cy="21" rx="21.5" ry="21" fill="#9668A8"/>
<path d="M16.96 9H27.04C30.88 9 34 12.12 34 15.96V26.04C34 27.8859 33.2667 29.6562 31.9615 30.9615C30.6562 32.2667 28.8859 33 27.04 33H16.96C13.12 33 10 29.88 10 26.04V15.96C10 14.1141 10.7333 12.3438 12.0385 11.0385C13.3438 9.73328 15.1141 9 16.96 9ZM16.72 11.4C15.5743 11.4 14.4755 11.8551 13.6653 12.6653C12.8551 13.4755 12.4 14.5743 12.4 15.72V26.28C12.4 28.668 14.332 30.6 16.72 30.6H27.28C28.4257 30.6 29.5245 30.1449 30.3347 29.3347C31.1449 28.5245 31.6 27.4257 31.6 26.28V15.72C31.6 13.332 29.668 11.4 27.28 11.4H16.72ZM28.3 13.2C28.6978 13.2 29.0794 13.358 29.3607 13.6393C29.642 13.9206 29.8 14.3022 29.8 14.7C29.8 15.0978 29.642 15.4794 29.3607 15.7607C29.0794 16.042 28.6978 16.2 28.3 16.2C27.9022 16.2 27.5206 16.042 27.2393 15.7607C26.958 15.4794 26.8 15.0978 26.8 14.7C26.8 14.3022 26.958 13.9206 27.2393 13.6393C27.5206 13.358 27.9022 13.2 28.3 13.2ZM22 15C23.5913 15 25.1174 15.6321 26.2426 16.7574C27.3679 17.8826 28 19.4087 28 21C28 22.5913 27.3679 24.1174 26.2426 25.2426C25.1174 26.3679 23.5913 27 22 27C20.4087 27 18.8826 26.3679 17.7574 25.2426C16.6321 24.1174 16 22.5913 16 21C16 19.4087 16.6321 17.8826 17.7574 16.7574C18.8826 15.6321 20.4087 15 22 15ZM22 17.4C21.0452 17.4 20.1295 17.7793 19.4544 18.4544C18.7793 19.1295 18.4 20.0452 18.4 21C18.4 21.9548 18.7793 22.8705 19.4544 23.5456C20.1295 24.2207 21.0452 24.6 22 24.6C22.9548 24.6 23.8705 24.2207 24.5456 23.5456C25.2207 22.8705 25.6 21.9548 25.6 21C25.6 20.0452 25.2207 19.1295 24.5456 18.4544C23.8705 17.7793 22.9548 17.4 22 17.4Z" fill="white"/>
</svg>
