<svg width="150" height="147" viewBox="0 0 150 147" fill="none" xmlns="http://www.w3.org/2000/svg">
<ellipse cx="74.7483" cy="73.5" rx="74.7483" ry="73.5" fill="#9C59FF"/>
<path d="M127.424 73.5001C127.424 101.324 104.478 123.922 76.1202 123.922C47.762 123.922 24.8164 101.324 24.8164 73.5001C24.8164 45.6765 47.762 23.0781 76.1202 23.0781C104.478 23.0781 127.424 45.6765 127.424 73.5001Z" fill="white" stroke="#AA8BBB" stroke-width="3"/>
<path fill-rule="evenodd" clip-rule="evenodd" d="M37.8164 61.4259C39.5658 71.5197 46.4062 77.3776 57.8256 79.5703C57.8062 79.3149 57.8062 79.0749 57.8062 78.8195C50.2586 76.3708 45.5997 71.5944 44.1062 64.2046C59.4766 62.4772 69.7173 64.9253 75.6528 71.0386C75.7908 71.1891 75.928 71.3242 76.066 71.4742C76.2623 71.3242 76.3995 71.1742 76.5569 71.0089C82.4931 64.9105 92.7137 62.4772 108.065 64.2046C106.57 71.5944 101.912 76.3708 94.3841 78.8195C94.3841 79.0749 94.3647 79.3149 94.3647 79.5703C105.765 77.3776 112.624 71.5197 114.374 61.4259C94.6989 59.0223 82.3551 62.5524 76.0854 71.294C69.8151 62.5524 57.4914 59.0223 37.8164 61.4259Z" fill="#868181"/>
<path fill-rule="evenodd" clip-rule="evenodd" d="M76.0776 39.1099C81.4183 39.1099 85.7201 44.3355 85.7201 50.7799C85.7201 53.069 85.1798 55.1926 84.2444 57.0022C84.5559 55.9502 84.7429 54.8233 84.7429 53.6605C84.7429 48.1209 80.878 43.6522 76.0776 43.6522C71.319 43.6522 67.4328 48.1209 67.4328 53.6605C67.4328 54.8233 67.6198 55.9502 67.9313 57.0022C66.9959 55.1926 66.4556 53.069 66.4556 50.7799C66.4556 44.3355 70.7787 39.1099 76.0776 39.1099ZM76.0776 114.633C59.4112 99.0477 57.063 83.5187 66.8089 67.731C60.3877 80.5639 62.944 93.1941 76.0776 105.899C89.2317 93.1941 91.8086 80.5639 85.3668 67.7493C95.1339 83.5187 92.785 99.0477 76.0776 114.633Z" fill="#868181"/>
</svg>
