<svg width="61" height="61" viewBox="0 0 61 61" fill="none" xmlns="http://www.w3.org/2000/svg">
<path fill-rule="evenodd" clip-rule="evenodd" d="M0 17.624C1.39392 26.1777 6.8442 31.1419 15.9431 33C15.9276 32.7836 15.9276 32.5801 15.9276 32.3637C9.91381 30.2887 6.20166 26.2411 5.0116 19.9787C17.2586 18.5149 25.4182 20.5894 30.1475 25.77C30.2575 25.8975 30.3668 26.012 30.4768 26.1391C30.6331 26.012 30.7425 25.885 30.8679 25.7449C35.5978 20.5769 43.7414 18.5149 55.9729 19.9787C54.7823 26.2411 51.0707 30.2887 45.0724 32.3637C45.0724 32.5801 45.0569 32.7836 45.0569 33C54.1403 31.1419 59.6061 26.1777 61 17.624C45.3232 15.5871 35.4878 18.5786 30.4923 25.9864C25.4961 18.5786 15.6768 15.5871 0 17.624Z" fill="white"/>
<path fill-rule="evenodd" clip-rule="evenodd" d="M30.4858 5.75414e-07C34.925 5.75414e-07 38.5008 4.22075 38.5008 9.42593C38.5008 11.2748 38.0517 12.9901 37.2742 14.4517C37.5332 13.602 37.6886 12.6917 37.6886 11.7526C37.6886 7.27819 34.4759 3.66883 30.4858 3.66883C26.5303 3.66883 23.3 7.27819 23.3 11.7526C23.3 12.6917 23.4554 13.602 23.7144 14.4517C22.9368 12.9901 22.4877 11.2748 22.4877 9.42593C22.4877 4.22075 26.0812 5.75414e-07 30.4858 5.75414e-07ZM30.4858 61C16.6322 48.4119 14.6804 35.8691 22.7814 23.1174C17.4439 33.4825 19.5688 43.684 30.4858 53.9454C41.4198 43.684 43.5617 33.4825 38.2071 23.1321C46.3258 35.8691 44.3734 48.4119 30.4858 61Z" fill="white"/>
</svg>
