<svg width="63" height="65" viewBox="0 0 63 65" fill="none" xmlns="http://www.w3.org/2000/svg">
<path opacity="0.5" fill-rule="evenodd" clip-rule="evenodd" d="M0 17.702C1.43962 27.325 7.0686 32.9096 16.4658 35C16.4498 34.7565 16.4498 34.5277 16.4498 34.2842C10.2389 31.9498 6.40499 27.3962 5.17592 20.3511C17.8244 18.7042 26.2516 21.0381 31.136 26.8663C31.2495 27.0097 31.3625 27.1385 31.476 27.2815C31.6375 27.1385 31.7505 26.9956 31.88 26.838C36.7649 21.024 45.1756 18.7042 57.8081 20.3511C56.5785 27.3962 52.7452 31.9498 46.5502 34.2842C46.5502 34.5277 46.5342 34.7565 46.5342 35C55.9154 32.9096 61.5604 27.325 63 17.702C46.8092 15.4105 36.6514 18.776 31.492 27.1098C26.3321 18.776 16.1908 15.4105 0 17.702Z" fill="#66359B"/>
<path opacity="0.5" fill-rule="evenodd" clip-rule="evenodd" d="M31.4858 1.63271e-06C35.925 1.63271e-06 39.5008 4.49752 39.5008 10.044C39.5008 12.0141 39.0517 13.8419 38.2742 15.3993C38.5332 14.4939 38.6886 13.524 38.6886 12.5232C38.6886 7.75545 35.4759 3.90941 31.4858 3.90941C27.5303 3.90941 24.3 7.75545 24.3 12.5232C24.3 13.524 24.4554 14.4939 24.7144 15.3993C23.9368 13.8419 23.4877 12.0141 23.4877 10.044C23.4877 4.49752 27.0812 1.63271e-06 31.4858 1.63271e-06ZM31.4858 65C17.6322 51.5865 15.6804 38.2211 23.7814 24.6332C18.4439 35.678 20.5688 46.5485 31.4858 57.4828C42.4198 46.5485 44.5617 35.678 39.2071 24.6489C47.3258 38.2211 45.3734 51.5865 31.4858 65Z" fill="#66359B"/>
</svg>
