<svg width="221" height="119" viewBox="0 0 221 119" fill="none" xmlns="http://www.w3.org/2000/svg">
<path fill-rule="evenodd" clip-rule="evenodd" d="M16.1241 106.604V108.912H20.1152V109.778H16.1241V112.952H15.1621V105.714H20.2595V106.604H16.1241ZM22.1834 105.714H23.1691V112.952H22.1834V105.714ZM24.9488 110.716H26.0066L26.0303 110.812C26.1745 111.798 27.3528 112.063 28.1706 112.063C28.7236 112.063 29.493 111.99 29.8782 111.557C30.0461 111.389 30.1182 111.101 30.0945 110.86C29.9978 110.018 28.7236 109.874 28.0747 109.778C26.8243 109.609 25.1651 109.177 25.2855 107.59C25.3814 106.123 26.8718 105.666 28.1222 105.666C29.493 105.69 30.8155 106.316 30.8876 107.831V107.95H29.8536V107.831C29.8536 106.916 28.8203 106.604 28.0747 106.604C27.4249 106.604 26.3434 106.772 26.2713 107.613C26.2229 108.528 27.6175 108.72 28.2427 108.816C29.5414 108.984 31.2244 109.393 31.176 111.004C31.1523 112.495 29.4209 113 28.1943 113C26.8243 113 25.093 112.471 24.9488 110.836V110.716ZM32.9557 105.714H33.9414V112.952H32.9557V105.714ZM35.7211 109.345C35.7211 107.037 37.092 105.666 39.3764 105.666C41.6608 105.666 43.0071 107.037 43.0071 109.345C43.0071 111.629 41.6608 113 39.3764 113C37.092 113 35.7211 111.629 35.7211 109.345ZM47.2875 106.604V112.952H46.301V106.604H43.7527V105.714H49.8358V106.604H47.2875ZM51.8801 106.58V108.912H55.8476V109.778H51.8801V112.063H56.136V112.952H50.8944V105.714H55.9918V106.58H51.8801ZM61.5226 110.186L63.494 112.952H62.3641L60.4885 110.307H58.4442V112.952H57.4584V105.714H60.4639C61.979 105.714 63.2056 106.291 63.2056 107.999C63.2056 109.201 62.6287 109.922 61.5226 110.186ZM69.6016 111.269H65.7063L64.9607 112.952H63.9029L67.2689 105.714H68.0391L71.4051 112.952H70.371L69.6016 111.269ZM73.3765 110.307V112.952H72.3908V105.714H75.3971C76.9113 105.714 78.1379 106.291 78.1379 107.999C78.1379 109.73 76.9359 110.307 75.3971 110.307H73.3765ZM79.9176 105.714H80.9033V112.952H79.9176V105.714ZM87.8763 111.269H84.0055L83.2361 112.952H82.2021L85.5681 105.714H86.3375L89.7043 112.952H88.6456L87.8763 111.269ZM94.6574 110.307V112.952H93.6717V105.714H96.6772C98.1922 105.714 99.4189 106.291 99.4189 107.999C99.4189 109.73 98.1922 110.307 96.6772 110.307H94.6574ZM101.871 106.604V108.912H105.839V109.778H101.871V112.063H106.127V112.952H100.886V105.714H105.983V106.604H101.871ZM103.363 105.354H102.304L103.963 103.862H105.334L103.363 105.354ZM108.412 112.063H112.499V112.952H107.426V105.714H108.412V112.063ZM116.467 111.605L119.16 105.714H120.218L116.852 112.952H116.083L112.716 105.714H113.75L116.467 111.605ZM121.517 105.714H122.502V112.952H121.517V105.714ZM127.841 112.976C125.556 112.976 124.282 111.605 124.282 109.345C124.282 107.037 125.556 105.666 127.841 105.666C129.476 105.666 130.774 106.339 131.231 107.999L131.28 108.143H130.294L130.269 108.047C129.909 106.941 128.995 106.532 127.865 106.532C126.086 106.532 125.244 107.59 125.244 109.345C125.244 111.076 126.086 112.11 127.865 112.11C128.995 112.11 129.909 111.726 130.269 110.595L130.294 110.523H131.28L131.231 110.667C130.774 112.326 129.476 112.976 127.841 112.976ZM137.604 111.269H133.732L132.963 112.952H131.905L135.295 105.714H136.04L139.407 112.952H138.373L137.604 111.269ZM144.36 106.604V108.912H148.352V109.778H144.36V112.952H143.374V105.714H148.496V106.604H144.36ZM153.185 113C150.9 113 150.107 111.605 150.107 109.489L150.131 105.714H151.118V109.417C151.093 110.956 151.406 112.11 153.185 112.11C154.941 112.11 155.229 110.956 155.253 109.417L155.278 105.714H156.263L156.239 109.489C156.239 111.605 155.469 113 153.185 113ZM163.38 111.22V105.714H164.366V112.952H163.597L159.101 107.445V112.952H158.139V105.714H158.908L163.38 111.22ZM169.488 112.976C167.18 112.976 165.93 111.605 165.93 109.345C165.93 107.037 167.204 105.666 169.488 105.666C171.124 105.666 172.422 106.339 172.879 107.999L172.902 108.143H171.941L171.917 108.047C171.532 106.941 170.643 106.532 169.513 106.532C167.733 106.532 166.868 107.59 166.868 109.345C166.868 111.076 167.733 112.11 169.513 112.11C170.643 112.11 171.532 111.726 171.917 110.595L171.941 110.523H172.902L172.879 110.667C172.422 112.326 171.124 112.976 169.488 112.976ZM174.658 105.714H175.644V112.952H174.658V105.714ZM177.424 109.345C177.424 107.037 178.794 105.666 181.078 105.666C183.363 105.666 184.71 107.037 184.71 109.345C184.71 111.629 183.363 113 181.078 113C178.77 113 177.424 111.629 177.424 109.345ZM191.515 111.22V105.714H192.5V112.952H191.731L187.258 107.445V112.952H186.272V105.714H187.042L191.515 111.22ZM199.282 111.269H195.385L194.641 112.952H193.582L196.949 105.714H197.718L201.085 112.952H200.051L199.282 111.269ZM203.056 112.063H207.12V112.952H202.071V105.714H203.056V112.063ZM39.3764 106.556C37.5967 106.556 36.7068 107.566 36.7068 109.345C36.7068 111.101 37.5967 112.11 39.3764 112.11C41.1553 112.11 42.0214 111.076 42.0214 109.345C42.0214 107.59 41.1553 106.556 39.3764 106.556ZM58.4442 106.604V109.417H60.4164C61.4021 109.417 62.1953 109.177 62.1953 107.999C62.1953 106.844 61.4021 106.604 60.4164 106.604H58.4442ZM66.1152 110.403H69.1928L67.654 107.06L66.1152 110.403ZM73.3765 106.604V109.417H75.3488C76.3345 109.417 77.1285 109.177 77.1285 107.999C77.1285 106.844 76.3345 106.604 75.3488 106.604H73.3765ZM84.4144 110.403H87.4682L85.9532 107.06L84.4144 110.403ZM94.6574 106.604V109.417H96.6297C97.6154 109.417 98.4086 109.177 98.4086 107.999C98.4086 106.844 97.6154 106.604 96.6297 106.604H94.6574ZM134.141 110.403H137.195L135.656 107.06L134.141 110.403ZM181.078 106.556C179.299 106.556 178.409 107.566 178.409 109.345C178.409 111.101 179.299 112.11 181.078 112.11C182.858 112.11 183.723 111.076 183.723 109.345C183.723 107.59 182.858 106.556 181.078 106.556ZM195.794 110.403H198.873L197.333 107.06L195.794 110.403Z" fill="white"/>
<path fill-rule="evenodd" clip-rule="evenodd" d="M34.9986 58.9495C38.1 58.9495 40.6974 59.551 42.813 60.753C44.9049 61.9796 46.4921 63.4946 47.5499 65.3219C48.6085 67.1491 49.1616 69.1688 49.1854 71.309C49.2091 73.4493 48.7044 75.4453 47.6703 77.2725C46.6609 79.0759 45.0737 80.6147 42.9819 81.8176C40.8654 83.0196 38.1967 83.6448 34.9986 83.6448H21.0757V98.3125H15.5449V58.9495H34.9986ZM21.0757 60.7292V81.8414H31.4155C34.1325 81.8414 36.3932 81.312 38.1967 80.2788C39.9755 79.2448 41.298 77.946 42.1641 76.3589C43.0294 74.7963 43.4145 73.1125 43.3899 71.309C43.3661 69.5056 42.8852 67.7742 41.9953 66.2117C41.1063 64.6483 39.7592 63.3504 38.0041 62.2918C36.2244 61.2577 34.0121 60.7292 31.4155 60.7292H21.0757ZM85.0856 58.902V61.066H62.1938V76.263H77.9923V78.427H62.1938V96.1485H85.0856V98.3125H56.6638V58.902H85.0856ZM93.5744 98.3125V58.902H99.0569V96.75H121.996V98.3125H93.5744ZM163.451 98.3125V58.902H169.006V98.3125H163.451ZM205.988 58.902V61.066H183.121V76.263H198.895V78.427H183.121V96.1485H205.988V98.3125H177.59V58.902H205.988Z" fill="white"/>
<path fill-rule="evenodd" clip-rule="evenodd" d="M88.9102 29.3358C91.0504 45.4948 99.4187 54.8726 113.389 58.3828C113.365 57.9739 113.365 57.5897 113.365 57.1808C104.132 53.2609 98.4322 45.6144 96.605 33.7842C115.409 31.0188 127.937 34.9379 135.199 44.7246C135.367 44.9655 135.535 45.1818 135.704 45.4219C135.944 45.1818 136.112 44.9417 136.305 44.6771C143.567 34.9142 156.071 31.0188 174.851 33.7842C173.023 45.6144 167.324 53.2609 158.114 57.1808C158.114 57.5897 158.09 57.9739 158.09 58.3828C172.037 54.8726 180.429 45.4948 182.569 29.3358C158.499 25.488 143.398 31.1393 135.728 45.1334C128.057 31.1393 112.98 25.488 88.9102 29.3358Z" fill="white"/>
<path fill-rule="evenodd" clip-rule="evenodd" d="M135.727 4.00394C141.906 4.00394 146.884 10.8089 146.884 19.2009C146.884 22.1818 146.259 24.9472 145.177 27.3038C145.537 25.9338 145.753 24.4663 145.753 22.9521C145.753 15.7382 141.281 9.91902 135.727 9.91902C130.22 9.91902 125.724 15.7382 125.724 22.9521C125.724 24.4663 125.94 25.9338 126.3 27.3038C125.218 24.9472 124.593 22.1818 124.593 19.2009C124.593 10.8089 129.595 4.00394 135.727 4.00394ZM135.727 102.352C116.442 82.0563 113.725 61.8341 125.002 41.275C117.572 57.9862 120.53 74.4337 135.727 90.9778C150.947 74.4337 153.929 57.9862 146.475 41.2988C157.777 61.8341 155.059 82.0563 135.727 102.352Z" fill="white"/>
</svg>
