<svg width="49" height="49" viewBox="0 0 49 49" fill="none" xmlns="http://www.w3.org/2000/svg">
<path fill-rule="evenodd" clip-rule="evenodd" d="M0 14.507C1.11971 21.4569 5.4978 25.4903 12.8067 27C12.7943 26.8241 12.7943 26.6589 12.7943 26.483C7.96355 24.7971 4.98166 21.5084 4.02571 16.4202C13.8634 15.2308 20.4179 16.9164 24.2169 21.1256C24.3052 21.2293 24.393 21.3223 24.4814 21.4255C24.607 21.3223 24.6948 21.219 24.7956 21.1052C28.5949 16.9062 35.1366 15.2308 44.9619 16.4202C44.0055 21.5084 41.024 24.7971 36.2057 26.483C36.2057 26.6589 36.1933 26.8241 36.1933 27C43.4898 25.4903 47.8803 21.4569 49 14.507C36.4072 12.852 28.5066 15.2826 24.4938 21.3015C20.4805 15.2826 12.5928 12.852 0 14.507Z" fill="#888888"/>
<path fill-rule="evenodd" clip-rule="evenodd" d="M24.488 8.58715e-07C28.217 8.58715e-07 31.2207 3.39044 31.2207 7.57165C31.2207 9.05682 30.8435 10.4346 30.1903 11.6087C30.4079 10.9262 30.5384 10.195 30.5384 9.44058C30.5384 5.84642 27.8398 2.94709 24.488 2.94709C21.1655 2.94709 18.452 5.84642 18.452 9.44058C18.452 10.195 18.5825 10.9262 18.8001 11.6087C18.1469 10.4346 17.7697 9.05682 17.7697 7.57165C17.7697 3.39044 20.7882 8.58715e-07 24.488 8.58715e-07ZM24.488 49C12.8511 38.8883 11.2116 28.8129 18.0164 18.5697C13.5329 26.8958 15.3178 35.0904 24.488 43.3332C33.6726 35.0904 35.4718 26.8958 30.974 18.5815C37.7937 28.8129 36.1536 38.8883 24.488 49Z" fill="#888888"/>
</svg>
