<svg width="27" height="27" viewBox="0 0 27 27" fill="none" xmlns="http://www.w3.org/2000/svg">
<path fill-rule="evenodd" clip-rule="evenodd" d="M0 7.02857C0.616982 11.4848 3.0294 14.071 7.05678 15.0391C7.04993 14.9263 7.04993 14.8203 7.04993 14.7076C4.38808 13.6265 2.745 11.5178 2.21825 8.25534C7.63904 7.4927 11.2507 8.5735 13.344 11.2724C13.3926 11.3389 13.4411 11.3985 13.4897 11.4647C13.5589 11.3985 13.6074 11.3323 13.6629 11.2593C15.7564 8.56695 19.361 7.4927 24.7749 8.25534C24.2479 11.5178 22.6051 13.6265 19.9501 14.7076C19.9501 14.8203 19.9432 14.9263 19.9432 15.0391C23.9638 14.071 26.383 11.4848 27 7.02857C20.0611 5.96743 15.7077 7.52592 13.4966 11.3852C11.2852 7.52592 6.93891 5.96743 0 7.02857Z" fill="#9C59FF"/>
<path fill-rule="evenodd" clip-rule="evenodd" d="M13.404 2.2637e-07C15.2059 2.2637e-07 16.6574 1.8682 16.6574 4.17213C16.6574 4.99049 16.4751 5.7497 16.1594 6.39665C16.2646 6.02054 16.3276 5.61765 16.3276 5.20195C16.3276 3.22149 15.0236 1.62391 13.404 1.62391C11.7984 1.62391 10.4872 3.22149 10.4872 5.20195C10.4872 5.61765 10.5503 6.02054 10.6554 6.39665C10.3398 5.7497 10.1575 4.99049 10.1575 4.17213C10.1575 1.8682 11.6161 2.2637e-07 13.404 2.2637e-07ZM13.404 27C7.78076 21.4282 6.9885 15.8765 10.2768 10.2323C8.11023 14.8201 8.97273 19.3355 13.404 23.8775C17.8422 19.3355 18.7116 14.8201 16.5381 10.2388C19.8336 15.8765 19.0411 21.4282 13.404 27Z" fill="#9C59FF"/>
</svg>
