<svg width="140" height="141" viewBox="0 0 140 141" fill="none" xmlns="http://www.w3.org/2000/svg">
<path fill-rule="evenodd" clip-rule="evenodd" d="M0 39.1895C3.19917 59.6369 15.708 71.5035 36.5907 75.9453C36.5552 75.4279 36.5552 74.9417 36.5552 74.4243C22.753 69.464 14.2333 59.7883 11.502 44.8185C39.6098 41.3192 58.3369 46.2783 69.191 58.6623C69.4433 58.9671 69.6944 59.2409 69.9467 59.5446C70.3056 59.2409 70.5566 58.9371 70.8445 58.6022C81.6998 46.2483 100.39 41.3192 128.462 44.8185C125.73 59.7883 117.211 69.464 103.445 74.4243C103.445 74.9417 103.409 75.4279 103.409 75.9453C124.257 71.5035 136.801 59.6369 140 39.1895C104.02 34.3205 81.4475 41.4716 69.9822 59.1797C58.5157 41.4716 35.9795 34.3205 0 39.1895Z" fill="#66359B"/>
<path fill-rule="evenodd" clip-rule="evenodd" d="M69.9677 0.171877C79.963 0.171877 88.0141 9.85884 88.0141 21.8052C88.0141 26.0485 87.0029 29.9851 85.2522 33.3397C85.8353 31.3895 86.1852 29.3004 86.1852 27.1449C86.1852 16.8759 78.9518 8.59213 69.9677 8.59213C61.0619 8.59213 53.7887 16.8759 53.7887 27.1449C53.7887 29.3004 54.1386 31.3895 54.7217 33.3397C52.971 29.9851 51.9598 26.0485 51.9598 21.8052C51.9598 9.85884 60.0507 0.171877 69.9677 0.171877ZM69.9677 140.172C38.7759 111.281 34.3813 82.4943 52.6211 53.2281C40.6035 77.0169 45.3877 100.43 69.9677 123.981C94.5861 100.43 99.4088 77.0169 87.3528 53.2619C105.632 82.4943 101.236 111.281 69.9677 140.172Z" fill="#66359B"/>
<ellipse cx="68.9176" cy="68.6057" rx="43.6598" ry="41.8557" fill="#9C59FF"/>
<path fill-rule="evenodd" clip-rule="evenodd" d="M38.9688 58.3739C40.354 66.4757 45.7701 71.1775 54.8121 72.9375C54.7968 72.7325 54.7968 72.5398 54.7968 72.3348C48.8206 70.3694 45.1316 66.5357 43.949 60.6042C56.1194 59.2177 64.228 61.1827 68.9277 66.0895C69.037 66.2103 69.1457 66.3188 69.255 66.4391C69.4103 66.3188 69.519 66.1984 69.6437 66.0657C74.3439 61.1707 82.4367 59.2177 94.5917 60.6042C93.4085 66.5357 89.7201 70.3694 83.7593 72.3348C83.7593 72.5398 83.7439 72.7325 83.7439 72.9375C92.7705 71.1775 98.2021 66.4757 99.5873 58.3739C84.0085 56.4446 74.2347 59.2781 69.2703 66.2945C64.3054 59.2781 54.5475 56.4446 38.9688 58.3739Z" fill="white"/>
<path fill-rule="evenodd" clip-rule="evenodd" d="M69.2638 41.1792C73.6207 41.1792 77.1302 45.2238 77.1302 50.2117C77.1302 51.9834 76.6894 53.627 75.9263 55.0276C76.1805 54.2134 76.333 53.3411 76.333 52.4412C76.333 48.1536 73.18 44.6949 69.2638 44.6949C65.3818 44.6949 62.2114 48.1536 62.2114 52.4412C62.2114 53.3411 62.3639 54.2134 62.6181 55.0276C61.855 53.627 61.4142 51.9834 61.4142 50.2117C61.4142 45.2238 64.941 41.1792 69.2638 41.1792ZM69.2638 99.6328C55.6674 87.5702 53.7518 75.551 61.7025 63.3315C56.464 73.264 58.5495 83.0396 69.2638 92.8727C79.9949 83.0396 82.0971 73.264 76.8419 63.3457C84.81 75.551 82.8938 87.5702 69.2638 99.6328Z" fill="white"/>
</svg>
