<svg width="58" height="52" viewBox="0 0 58 52" fill="none" xmlns="http://www.w3.org/2000/svg">
<path d="M26.4686 11.8436L29.7498 2L33.0311 11.8436H42.8747L35.2185 18.4061L38.4997 28.2497L29.7498 22.2341L20.9999 28.2497L23.7343 18.4061L16.625 11.8436H26.4686Z" fill="#9C59FF" stroke="#9C59FF"/>
<path d="M7.24993 33.8749L9.12491 28.25L10.9999 33.8749H16.6248L12.2499 37.6249L14.1248 43.2498L9.12491 39.8124L4.12497 43.2498L5.68745 37.6249L1.625 33.8749H7.24993Z" fill="#9C59FF" stroke="#9C59FF"/>
<path d="M46.9999 33.8749L48.8749 28.25L50.7499 33.8749H56.3748L51.9999 37.6249L53.8748 43.2498L48.8749 39.8124L43.875 43.2498L45.4375 37.6249L41.375 33.8749H46.9999Z" fill="#9C59FF" stroke="#9C59FF"/>
<path d="M26.6955 30.603C29.0415 29.7775 31.5925 29.8002 33.9241 30.6673C35.2045 31.1587 36.3777 31.9044 37.3763 32.8617C37.037 33.2338 36.6791 33.5815 36.333 33.9432C35.6748 34.6167 35.0171 35.2879 34.3601 35.9567C33.705 35.3146 32.9126 34.8382 32.0461 34.5657C30.9373 34.2225 29.7576 34.199 28.6366 34.4978C27.5156 34.7965 26.4966 35.406 25.6912 36.2593C24.9883 36.9922 24.4559 37.8785 24.1339 38.8518L20.6172 36.0611C21.876 33.5025 24.0554 31.5454 26.6955 30.603Z" fill="#E33629"/>
<path d="M19.683 38.8272C19.8719 37.867 20.1857 36.9371 20.6161 36.0625L24.1328 38.8602C23.6729 40.2489 23.6729 41.7542 24.1328 43.1429C22.9611 44.0702 21.7889 45.0022 20.6161 45.9389C19.5391 43.7416 19.2106 41.238 19.683 38.8272Z" fill="#F8BD00"/>
<path d="M30.2039 38.9375H40.3011C40.6463 40.8796 40.5529 42.877 40.028 44.7764C39.5449 46.523 38.6065 48.1016 37.3137 49.3425C36.1787 48.4348 35.0387 47.5341 33.9038 46.6265C34.4665 46.2375 34.9467 45.736 35.3158 45.1522C35.6848 44.5684 35.9351 43.9142 36.0515 43.2288H30.2039C30.2022 41.7996 30.2039 40.3685 30.2039 38.9375Z" fill="#587DBD"/>
<path d="M20.6172 45.9444C21.79 45.0171 22.9622 44.0851 24.1339 43.1484C24.5872 44.512 25.4493 45.6938 26.5971 46.5252C27.313 47.044 28.1265 47.404 28.9857 47.5824C29.8323 47.7438 30.7007 47.7438 31.5474 47.5824C32.3915 47.4361 33.1965 47.1103 33.9105 46.626C35.0454 47.5337 36.1854 48.4344 37.3203 49.342C36.0784 50.4996 34.5643 51.3067 32.9266 51.6842C31.1188 52.1198 29.235 52.0989 27.4369 51.6233C26.0148 51.2341 24.6864 50.548 23.5351 49.6081C22.3166 48.6163 21.3213 47.3666 20.6172 45.9444Z" fill="#319F43"/>
</svg>
