<svg width="70" height="75" viewBox="0 0 70 75" fill="none" xmlns="http://www.w3.org/2000/svg">
<path d="M69.375 6.25V68.75C69.375 70.4076 68.7165 71.9973 67.5444 73.1694C66.3723 74.3415 64.7826 75 63.125 75H47.5C45.8424 75 44.2527 74.3415 43.0806 73.1694C41.9085 71.9973 41.25 70.4076 41.25 68.75V6.25C41.25 4.5924 41.9085 3.00268 43.0806 1.83058C44.2527 0.65848 45.8424 0 47.5 0H63.125C64.7826 0 66.3723 0.65848 67.5444 1.83058C68.7165 3.00268 69.375 4.5924 69.375 6.25ZM22.5 0H6.875C5.2174 0 3.62768 0.65848 2.45558 1.83058C1.28348 3.00268 0.625 4.5924 0.625 6.25V68.75C0.625 70.4076 1.28348 71.9973 2.45558 73.1694C3.62768 74.3415 5.2174 75 6.875 75H22.5C24.1576 75 25.7473 74.3415 26.9194 73.1694C28.0915 71.9973 28.75 70.4076 28.75 68.75V6.25C28.75 4.5924 28.0915 3.00268 26.9194 1.83058C25.7473 0.65848 24.1576 0 22.5 0Z" fill="#9C59FF"/>
</svg>
