<svg width="54" height="54" viewBox="0 0 54 54" fill="none" xmlns="http://www.w3.org/2000/svg">
<circle cx="27" cy="27" r="26" fill="white" stroke="#AA8BBB" stroke-width="2"/>
<path fill-rule="evenodd" clip-rule="evenodd" d="M8.75781 21.565C9.5749 27.0267 12.7697 30.1964 18.1033 31.3828C18.0942 31.2446 18.0942 31.1147 18.0942 30.9765C14.5691 29.6516 12.3931 27.0671 11.6955 23.0686C18.8744 22.1339 23.6574 23.4585 26.4296 26.7664C26.494 26.8478 26.5581 26.9209 26.6226 27.002C26.7142 26.9209 26.7784 26.8398 26.8519 26.7503C29.6244 23.4505 34.398 22.1339 41.5678 23.0686C40.8699 27.0671 38.6943 29.6516 35.1782 30.9765C35.1782 31.1147 35.1691 31.2446 35.1691 31.3828C40.4936 30.1964 43.6975 27.0267 44.5146 21.565C35.3252 20.2645 29.5599 22.1746 26.6317 26.9046C23.703 22.1746 17.9472 20.2645 8.75781 21.565Z" fill="#404040"/>
<path fill-rule="evenodd" clip-rule="evenodd" d="M26.6296 11.6807C29.0916 11.6807 31.0747 14.1548 31.0747 17.206C31.0747 18.2898 30.8257 19.2952 30.3944 20.152C30.5381 19.6539 30.6242 19.1203 30.6242 18.5698C30.6242 15.947 28.8425 13.8313 26.6296 13.8313C24.4359 13.8313 22.6444 15.947 22.6444 18.5698C22.6444 19.1203 22.7306 19.6539 22.8742 20.152C22.443 19.2952 22.1939 18.2898 22.1939 17.206C22.1939 14.1548 24.1869 11.6807 26.6296 11.6807ZM26.6296 47.4375C18.9465 40.0587 17.8641 32.7063 22.3568 25.2316C19.3967 31.3074 20.5751 37.2872 26.6296 43.3023C32.6935 37.2872 33.8815 31.3074 30.9118 25.2402C35.4144 32.7063 34.3316 40.0587 26.6296 47.4375Z" fill="#404040"/>
</svg>
