<svg width="143" height="143" viewBox="0 0 143 143" fill="none" xmlns="http://www.w3.org/2000/svg">
<circle cx="71.5" cy="71.5" r="71.5" fill="#9C59FF"/>
<circle cx="72.5" cy="71.5" r="49" fill="white" stroke="#AA8BBB" stroke-width="3"/>
<path fill-rule="evenodd" clip-rule="evenodd" d="M39 60.702C40.5082 70.325 46.4052 75.9096 56.2499 78C56.2332 77.7565 56.2332 77.5277 56.2332 77.2842C49.7264 74.9498 45.71 70.3962 44.4224 63.3511C57.6732 61.7042 66.5017 64.0381 71.6186 69.8663C71.7376 70.0097 71.8559 70.1385 71.9749 70.2815C72.1441 70.1385 72.2624 69.9956 72.3981 69.838C77.5156 64.024 86.3268 61.7042 99.5609 63.3511C98.2727 70.3962 94.2568 74.9498 87.7668 77.2842C87.7668 77.5277 87.7501 77.7565 87.7501 78C97.5781 75.9096 103.492 70.325 105 60.702C88.0382 58.4105 77.3967 61.776 71.9916 70.1098C66.586 61.776 55.9618 58.4105 39 60.702Z" fill="#404040"/>
<path fill-rule="evenodd" clip-rule="evenodd" d="M71.9852 42C76.602 42 80.3209 46.5667 80.3209 52.1985C80.3209 54.199 79.8538 56.0548 79.0451 57.6363C79.3145 56.7169 79.4761 55.732 79.4761 54.7159C79.4761 49.8748 76.135 45.9695 71.9852 45.9695C67.8715 45.9695 64.512 49.8748 64.512 54.7159C64.512 55.732 64.6736 56.7169 64.943 57.6363C64.1343 56.0548 63.6672 54.199 63.6672 52.1985C63.6672 46.5667 67.4044 42 71.9852 42ZM71.9852 108C57.5775 94.3801 55.5476 80.8092 63.9727 67.0122C58.4217 78.2269 60.6316 89.2646 71.9852 100.367C83.3565 89.2646 85.5842 78.2269 80.0154 67.0282C88.4589 80.8092 86.4283 94.3801 71.9852 108Z" fill="#404040"/>
</svg>
