<svg width="69" height="69" viewBox="0 0 69 69" fill="none" xmlns="http://www.w3.org/2000/svg">
<rect width="69" height="69" rx="5" fill="#EBEBEB"/>
<path fill-rule="evenodd" clip-rule="evenodd" d="M28.1458 44.9992C28.1458 44.9992 26.2434 42.1965 25.6042 42.3498C18.7366 43.9898 11.625 48.7258 11.625 53.7592V60.9992H57.375V53.7592C57.375 48.7258 50.2634 43.9898 43.3958 42.3498C42.7566 42.1965 40.8542 44.9992 40.8542 44.9992H28.1458ZM36.6414 47.6658H26.8369L26.0769 46.5458L26.0642 46.5285L26.0134 46.4552C25.7202 46.0364 25.412 45.6295 25.0895 45.2352C22.3127 46.0392 19.5944 47.3618 17.5382 48.9365C15.0944 50.8058 14.1667 52.5552 14.1667 53.7592V58.3325H54.8333V53.7592C54.8333 52.5552 53.9056 50.8058 51.4631 48.9365C49.4069 47.3632 46.6886 46.0392 43.9118 45.2352L43.8165 45.3498C43.5272 45.7068 43.2509 46.0751 42.9879 46.4538L42.9371 46.5285L42.9244 46.5445L42.1644 47.6658H36.6414Z" fill="#545454"/>
<path fill-rule="evenodd" clip-rule="evenodd" d="M44.666 55.6641V47.6641H47.2077V55.6641H44.666Z" fill="#545454"/>
<path fill-rule="evenodd" clip-rule="evenodd" d="M49.7493 53H42.1243V50.3333H49.7493V53ZM34.4993 37C37.1957 37 39.7816 35.8762 41.6883 33.8758C43.5949 31.8754 44.666 29.1623 44.666 26.3333C44.666 23.5044 43.5949 20.7912 41.6883 18.7909C39.7816 16.7905 37.1957 15.6667 34.4993 15.6667C31.803 15.6667 29.217 16.7905 27.3104 18.7909C25.4038 20.7912 24.3327 23.5044 24.3327 26.3333C24.3327 29.1623 25.4038 31.8754 27.3104 33.8758C29.217 35.8762 31.803 37 34.4993 37ZM34.4993 39.6667C41.5182 39.6667 47.2077 33.6973 47.2077 26.3333C47.2077 18.9693 41.5182 13 34.4993 13C27.4805 13 21.791 18.9693 21.791 26.3333C21.791 33.6973 27.4805 39.6667 34.4993 39.6667Z" fill="#545454"/>
</svg>
