<svg width="31" height="32" viewBox="0 0 31 32" fill="none" xmlns="http://www.w3.org/2000/svg">
<path fill-rule="evenodd" clip-rule="evenodd" d="M10.8728 21.3866C10.8728 21.3866 9.62095 19.5273 9.20033 19.629C4.68142 20.717 0.00195312 23.859 0.00195312 27.1982V32.0013H30.1057V27.1982C30.1057 23.859 25.4263 20.717 20.9074 19.629C20.4867 19.5273 19.2349 21.3866 19.2349 21.3866H10.8728ZM16.4629 23.1557H10.0115L9.5114 22.4127L9.50304 22.4012L9.46959 22.3526C9.27665 22.0748 9.07386 21.8048 8.86166 21.5432C7.03453 22.0766 5.24586 22.9541 3.89287 23.9987C2.28482 25.2389 1.67439 26.3994 1.67439 27.1982V30.2322H28.4333V27.1982C28.4333 26.3994 27.8229 25.2389 26.2157 23.9987C24.8627 22.9549 23.074 22.0766 21.2469 21.5432L21.1841 21.6193C20.9938 21.8561 20.812 22.1004 20.6389 22.3517L20.6055 22.4012L20.5971 22.4118L20.0971 23.1557H16.4629Z" fill="#9C5AFF"/>
<path fill-rule="evenodd" clip-rule="evenodd" d="M21.7441 28.4636V23.1562H23.4166V28.4636H21.7441Z" fill="#9C5AFF"/>
<path fill-rule="evenodd" clip-rule="evenodd" d="M25.0882 26.6929H20.0709V24.9238H25.0882V26.6929ZM15.0536 16.0782C16.8278 16.0782 18.5294 15.3327 19.7839 14.0056C21.0385 12.6785 21.7433 10.8786 21.7433 9.00179C21.7433 7.12501 21.0385 5.32509 19.7839 3.998C18.5294 2.67091 16.8278 1.92536 15.0536 1.92536C13.2793 1.92536 11.5778 2.67091 10.3232 3.998C9.06865 5.32509 8.36384 7.12501 8.36384 9.00179C8.36384 10.8786 9.06865 12.6785 10.3232 14.0056C11.5778 15.3327 13.2793 16.0782 15.0536 16.0782ZM15.0536 17.8473C19.672 17.8473 23.4157 13.8872 23.4157 9.00179C23.4157 4.1164 19.672 0.15625 15.0536 0.15625C10.4351 0.15625 6.69141 4.1164 6.69141 9.00179C6.69141 13.8872 10.4351 17.8473 15.0536 17.8473Z" fill="#9C5AFF"/>
</svg>
