<svg width="51" height="36" viewBox="0 0 51 36" fill="none" xmlns="http://www.w3.org/2000/svg">
<path d="M1 34H51M30.1667 14.4802H8.29167C7.48281 14.4801 6.69142 14.7151 6.01405 15.1566C5.33669 15.5981 4.80265 16.227 4.47708 16.9664C4.03125 17.9755 4.56458 19.0803 5.34583 19.8584L14.7833 29.2854C15.9625 30.4629 17.5617 31.1244 19.2292 31.1244C20.8967 31.1244 22.4959 30.4629 23.675 29.2854L32.25 20.7218H36.4167C36.4167 20.7218 38.6363 21.1275 45.8529 16.9664M21.8333 23.8426L12.4583 14.4802M6.61458 10.319C6.61458 10.319 2.84375 9.16018 2.16667 6.62398C1.91471 5.68463 2.04547 4.68386 2.53036 3.84053C3.01525 2.9972 3.8148 2.37994 4.75417 2.12374C5.21874 1.99959 5.70333 1.96847 6.18 2.03215C6.65668 2.09583 7.11603 2.25307 7.53159 2.49481C7.94716 2.73654 8.31073 3.058 8.60136 3.44066C8.89199 3.82332 9.10394 4.25962 9.225 4.72443C9.9 7.26063 7.22083 10.1547 7.22083 10.1547L6.61458 10.319Z" stroke="#9747FF" stroke-width="3"/>
</svg>
