<svg width="47" height="45" viewBox="0 0 47 45" fill="none" xmlns="http://www.w3.org/2000/svg">
<path d="M33.3734 29.8537C31.727 29.8537 30.3279 29.2781 29.176 28.1269C28.0242 26.974 27.4483 25.5756 27.4483 23.9317C27.4483 22.2862 28.0242 20.8878 29.176 19.7366C30.3279 18.5854 31.727 18.0106 33.3734 18.0123C35.0198 18.014 36.4189 18.5896 37.5707 19.7391C38.7225 20.8904 39.2984 22.2887 39.2984 23.9343C39.2984 25.5782 38.7225 26.9766 37.5707 28.1295C36.4189 29.2807 35.0198 29.8537 33.3734 29.8537ZM33.3734 27.2905C34.2976 27.2905 35.0883 26.962 35.7455 26.3052C36.4027 25.6483 36.7313 24.858 36.7313 23.9343C36.7313 23.0106 36.4027 22.2203 35.7455 21.5635C35.0883 20.9066 34.2976 20.5773 33.3734 20.5756C32.4492 20.5739 31.6585 20.9023 31.0013 21.5609C30.3441 22.2178 30.0155 23.008 30.0155 23.9317C30.0155 24.8555 30.3441 25.6457 31.0013 26.3026C31.6585 26.9595 32.4492 27.2905 33.3734 27.2905ZM21.8211 45C21.234 45 20.742 44.8016 20.3449 44.4047C19.9462 44.0079 19.7468 43.5161 19.7468 42.9294V39.3372C19.7468 38.7487 19.8871 38.1962 20.1678 37.6796C20.4485 37.1613 20.8421 36.7482 21.3487 36.4403C22.5193 35.727 23.5342 35.2258 24.3934 34.9367C25.2525 34.6493 26.3616 34.3902 27.7204 34.1593C28.162 34.0806 28.5899 34.0891 29.004 34.1849C29.4182 34.2807 29.7639 34.4997 30.0412 34.8418L33.3734 39.1293L36.6414 34.8418C36.9187 34.4791 37.2644 34.255 37.6786 34.1695C38.0927 34.084 38.5249 34.0797 38.975 34.1567C40.3578 34.3893 41.4677 34.6476 42.3046 34.9316C43.1415 35.2172 44.1684 35.7202 45.3852 36.4403C45.8918 36.7465 46.2795 37.1553 46.5482 37.6668C46.8152 38.1782 46.9658 38.7188 47 39.2884V42.9294C47 43.5161 46.8006 44.0079 46.4018 44.4047C46.0048 44.8016 45.5127 45 44.9257 45H21.8211ZM22.2498 42.4341H32.6623L28.1594 36.525C27.1154 36.7696 26.1014 37.0878 25.1173 37.4795C24.1315 37.8729 23.1757 38.3271 22.2498 38.8419V42.4341ZM34.0845 42.4341H44.4302V38.8419C43.5163 38.3168 42.5665 37.8686 41.5807 37.4974C40.5949 37.128 39.5808 36.82 38.5386 36.5737L34.0845 42.4341ZM2.56718 38.4879V2.56586V11.9466V10.9049V38.4879ZM4.17167 41.0537C3.00788 41.0537 2.02123 40.6475 1.21171 39.8349C0.403904 39.0241 0 38.0491 0 36.9099V4.14386C0 3.00462 0.40647 2.02959 1.21941 1.21878C2.03064 0.40626 3.00617 0 4.146 0H36.9289C38.0688 0 39.0443 0.40626 39.8555 1.21878C40.6685 2.02959 41.0749 3.00462 41.0749 4.14386V13.6196C40.6864 13.2569 40.2911 12.9294 39.8889 12.6368C39.4884 12.3443 39.028 12.1194 38.5078 11.962V4.14386C38.5078 3.68372 38.3597 3.30568 38.0636 3.00975C37.7675 2.71382 37.3893 2.56586 36.9289 2.56586H4.146C3.68562 2.56586 3.30739 2.71382 3.01131 3.00975C2.71522 3.30568 2.56718 3.68372 2.56718 4.14386V36.9099C2.56718 37.37 2.71522 37.748 3.01131 38.044C3.30739 38.3399 3.68562 38.4879 4.146 38.4879H12.7281C12.6973 38.6298 12.675 38.771 12.6614 38.9112C12.6459 39.0532 12.6382 39.1952 12.6382 39.3372V41.0537H4.17167ZM10.2687 12.1365H28.0413C28.6609 11.7773 29.313 11.5147 29.9975 11.3488C30.6821 11.1846 31.3795 11.0691 32.0898 11.0024V10.8561C32.0898 10.4918 31.9666 10.1873 31.7201 9.9427C31.4737 9.69808 31.169 9.57407 30.8062 9.57065H10.2687C9.90419 9.57065 9.59956 9.69381 9.35482 9.94013C9.10837 10.1865 8.98514 10.4909 8.98514 10.8536C8.98514 11.2179 9.10837 11.5233 9.35482 11.7696C9.59956 12.0142 9.90419 12.1365 10.2687 12.1365ZM10.2687 21.8098H20.5888C20.6538 21.3394 20.7411 20.8989 20.8507 20.4884C20.9619 20.0778 21.0903 19.663 21.2357 19.2439H10.2687C9.90419 19.2439 9.59956 19.3671 9.35482 19.6134C9.10837 19.8597 8.98514 20.1651 8.98514 20.5294C8.98514 20.8938 9.10837 21.1983 9.35482 21.4429C9.60127 21.6875 9.90591 21.8098 10.2687 21.8098ZM10.2687 31.4831H16.1579C16.5994 31.129 17.0547 30.7946 17.5236 30.4798C17.9925 30.1634 18.4717 29.8931 18.9612 29.669V29.5074C18.9612 29.35 18.9201 29.2114 18.838 29.0917C18.7524 28.9737 18.5967 28.9146 18.3708 28.9146H10.2687C9.90419 28.9146 9.59956 29.0378 9.35482 29.2841C9.11008 29.5304 8.98685 29.8358 8.98514 30.2001C8.98514 30.5645 9.10837 30.869 9.35482 31.1136C9.59956 31.3582 9.90419 31.4805 10.2687 31.4805" fill="#9747FF"/>
</svg>
