<svg width="47" height="53" viewBox="0 0 47 53" fill="none" xmlns="http://www.w3.org/2000/svg">
<path d="M23.5 39.1847L25.5798 37.1L19.4257 30.9167H33.2172V27.9722H19.4257L25.5798 21.7889L23.5 19.7042L13.7828 29.4444L23.5 39.1847ZM4.74406 53C3.43198 53 2.31279 52.5367 1.3865 51.6102C0.462167 50.6837 0 49.5619 0 48.2447V10.6442C0 9.32898 0.462167 8.20715 1.3865 7.27867C2.31083 6.35215 3.43002 5.88889 4.74406 5.88889H18.5503C18.284 4.38722 18.6433 3.02983 19.6284 1.81672C20.6134 0.605574 21.904 0 23.5 0C25.1352 0 26.4453 0.605574 27.4304 1.81672C28.4135 3.02983 28.7532 4.38722 28.4497 5.88889H42.2559C43.568 5.88889 44.6872 6.35215 45.6135 7.27867C46.5378 8.20519 47 9.32702 47 10.6442V48.2447C47 49.5599 46.5378 50.6817 45.6135 51.6102C44.6892 52.5367 43.57 53 42.2559 53H4.74406ZM4.74406 50.0556H42.2559C42.7064 50.0556 43.1205 49.8671 43.4985 49.4902C43.8745 49.1114 44.0625 48.6962 44.0625 48.2447V10.6442C44.0625 10.1927 43.8745 9.77752 43.4985 9.39867C43.1205 9.02178 42.7064 8.83333 42.2559 8.83333H4.74406C4.29365 8.83333 3.87946 9.02178 3.5015 9.39867C3.1255 9.77752 2.9375 10.1927 2.9375 10.6442V48.2447C2.9375 48.6962 3.1255 49.1114 3.5015 49.4902C3.87946 49.8671 4.29365 50.0556 4.74406 50.0556ZM23.5 7.19033C24.1365 7.19033 24.6633 6.98226 25.0804 6.56611C25.4975 6.14996 25.7051 5.62193 25.7031 4.982C25.7031 4.34404 25.4946 3.81698 25.0774 3.40083C24.6603 2.98469 24.1345 2.77563 23.5 2.77367C22.8635 2.77367 22.3377 2.98272 21.9226 3.40083C21.5074 3.81894 21.2988 4.346 21.2969 4.982C21.2969 5.61996 21.5054 6.148 21.9226 6.56611C22.3397 6.98422 22.8655 7.1923 23.5 7.19033Z" fill="#9747FF"/>
</svg>
