<svg width="40" height="38" viewBox="0 0 40 38" fill="none" xmlns="http://www.w3.org/2000/svg">
<path d="M16.875 37.5C14.5312 37.5 12.3362 37.0625 10.29 36.1875C8.24375 35.3125 6.45438 34.1094 4.92188 32.5781C3.39063 31.0469 2.1875 29.2575 1.3125 27.21C0.4375 25.1625 0 22.9675 0 20.625C0 18.2812 0.4375 16.0862 1.3125 14.04C2.1875 11.9937 3.39063 10.2044 4.92188 8.67188C6.45312 7.14063 8.2425 5.9375 10.29 5.0625C12.3375 4.1875 14.5325 3.75 16.875 3.75C17.5312 3.75 18.1644 3.78937 18.7744 3.86812C19.3844 3.94687 20.0013 4.06375 20.625 4.21875V8.0625C20 7.875 19.3831 7.73437 18.7744 7.64062C18.1656 7.54687 17.5325 7.5 16.875 7.5C13.1875 7.5 10.0781 8.76563 7.54688 11.2969C5.01563 13.8281 3.75 16.9375 3.75 20.625C3.75 24.3125 5.01563 27.4219 7.54688 29.9531C10.0781 32.4844 13.1875 33.75 16.875 33.75C20.5625 33.75 23.6719 32.4844 26.2031 29.9531C28.7344 27.4219 30 24.3125 30 20.625C30 20.2812 29.9844 19.9688 29.9531 19.6875C29.9219 19.4062 29.875 19.0938 29.8125 18.75H33.6563C33.7188 19.0938 33.75 19.4062 33.75 19.6875V20.625C33.75 22.9688 33.3125 25.1644 32.4375 27.2119C31.5625 29.2594 30.3594 31.0481 28.8281 32.5781C27.2969 34.1094 25.5075 35.3125 23.46 36.1875C21.4125 37.0625 19.2175 37.5 16.875 37.5ZM22.125 28.5L15 21.375V11.25H18.75V19.875L24.75 25.875L22.125 28.5ZM30 15V9.375H24.375V5.625H30V0H33.75V5.625H39.375V9.375H33.75V15H30Z" fill="#9747FF"/>
</svg>
