<svg width="29" height="29" viewBox="0 0 29 29" fill="none" xmlns="http://www.w3.org/2000/svg">
<circle cx="14.5" cy="14.5" r="14.5" fill="white"/>
<path d="M23 15.3552V8.5893C23 8.13522 22.8382 7.75681 22.5147 7.45409C22.1911 7.15136 21.7867 7 21.3175 7H14.0698C13.6006 7 13.1962 7.15136 12.8726 7.45409C12.549 7.75681 12.3873 8.13522 12.3873 8.5893C12.3873 9.02825 12.549 9.39152 12.8726 9.69425C13.1962 9.99697 13.6006 10.1332 14.0698 10.1332H17.2245L7.42063 19.3058C7.12942 19.6236 7 20.002 7 20.4864C7 20.9253 7.1456 21.2886 7.42063 21.5762C7.74419 21.8638 8.16481 22 8.69868 22C9.18402 22 9.58847 21.8638 9.87968 21.5762L19.6188 12.4188V15.3703C19.6188 15.8244 19.7806 16.2028 20.1041 16.5055C20.4277 16.8083 20.8322 16.9596 21.3175 16.9596C21.7867 16.9596 22.1911 16.8083 22.5147 16.4904C22.8382 16.1726 23 15.7941 23 15.3552Z" fill="#9668A8"/>
</svg>
