<svg width="107" height="21" viewBox="0 0 107 21" fill="none" xmlns="http://www.w3.org/2000/svg">
<rect x="1.27344" y="0.5" width="104.457" height="20" rx="3.5" fill="#F8F8F8" stroke="#EEEEEE"/>
<path d="M21.9698 10.0933L19.2982 12.4249L20.0985 15.8962C20.1408 16.0776 20.1287 16.2676 20.0637 16.4422C19.9987 16.6169 19.8837 16.7685 19.733 16.8781C19.5823 16.9877 19.4026 17.0504 19.2164 17.0585C19.0303 17.0665 18.8459 17.0195 18.6863 16.9234L15.6586 15.087L12.6375 16.9234C12.4779 17.0195 12.2935 17.0665 12.1073 17.0585C11.9212 17.0504 11.7415 16.9877 11.5908 16.8781C11.4401 16.7685 11.3251 16.6169 11.26 16.4422C11.195 16.2676 11.183 16.0776 11.2253 15.8962L12.0244 12.4284L9.35222 10.0933C9.21088 9.97138 9.10868 9.81047 9.05843 9.63072C9.00818 9.45098 9.01212 9.26039 9.06976 9.08287C9.12739 8.90536 9.23615 8.7488 9.3824 8.63285C9.52866 8.5169 9.70589 8.44671 9.89187 8.43108L13.4141 8.12601L14.789 4.84663C14.8608 4.67455 14.9819 4.52757 15.1371 4.42418C15.2923 4.32079 15.4745 4.26562 15.661 4.26562C15.8475 4.26562 16.0297 4.32079 16.1849 4.42418C16.3401 4.52757 16.4612 4.67455 16.533 4.84663L17.912 8.12601L21.4331 8.43108C21.6191 8.44671 21.7963 8.5169 21.9426 8.63285C22.0888 8.7488 22.1976 8.90536 22.2552 9.08287C22.3128 9.26039 22.3168 9.45098 22.2665 9.63072C22.2163 9.81047 22.1141 9.97138 21.9727 10.0933H21.9698Z" fill="#FFD233"/>
<path d="M41.3467 10.0933L38.6751 12.4249L39.4754 15.8962C39.5178 16.0776 39.5057 16.2676 39.4407 16.4422C39.3757 16.6169 39.2606 16.7685 39.1099 16.8781C38.9592 16.9877 38.7796 17.0504 38.5934 17.0585C38.4072 17.0665 38.2228 17.0195 38.0632 16.9234L35.0356 15.087L32.0145 16.9234C31.8549 17.0195 31.6705 17.0665 31.4843 17.0585C31.2981 17.0504 31.1184 16.9877 30.9677 16.8781C30.817 16.7685 30.702 16.6169 30.637 16.4422C30.572 16.2676 30.5599 16.0776 30.6023 15.8962L31.4014 12.4284L28.7292 10.0933C28.5878 9.97138 28.4856 9.81047 28.4354 9.63072C28.3851 9.45098 28.3891 9.26039 28.4467 9.08287C28.5043 8.90536 28.6131 8.7488 28.7594 8.63285C28.9056 8.5169 29.0828 8.44671 29.2688 8.43108L32.7911 8.12601L34.166 4.84663C34.2378 4.67455 34.3589 4.52757 34.514 4.42418C34.6692 4.32079 34.8515 4.26562 35.038 4.26562C35.2244 4.26562 35.4067 4.32079 35.5619 4.42418C35.717 4.52757 35.8381 4.67455 35.9099 4.84663L37.289 8.12601L40.81 8.43108C40.996 8.44671 41.1733 8.5169 41.3195 8.63285C41.4658 8.7488 41.5745 8.90536 41.6322 9.08287C41.6898 9.26039 41.6937 9.45098 41.6435 9.63072C41.5932 9.81047 41.491 9.97138 41.3497 10.0933H41.3467Z" fill="#FFD233"/>
<path d="M60.7237 10.0933L58.0521 12.4249L58.8524 15.8962C58.8947 16.0776 58.8826 16.2676 58.8176 16.4422C58.7526 16.6169 58.6376 16.7685 58.4869 16.8781C58.3362 16.9877 58.1565 17.0504 57.9703 17.0585C57.7842 17.0665 57.5998 17.0195 57.4402 16.9234L54.4125 15.087L51.3914 16.9234C51.2318 17.0195 51.0474 17.0665 50.8612 17.0585C50.6751 17.0504 50.4954 16.9877 50.3447 16.8781C50.194 16.7685 50.079 16.6169 50.014 16.4422C49.9489 16.2676 49.9369 16.0776 49.9792 15.8962L50.7783 12.4284L48.1061 10.0933C47.9648 9.97138 47.8626 9.81047 47.8123 9.63072C47.7621 9.45098 47.766 9.26039 47.8237 9.08287C47.8813 8.90536 47.9901 8.7488 48.1363 8.63285C48.2826 8.5169 48.4598 8.44671 48.6458 8.43108L52.168 8.12601L53.5429 4.84663C53.6147 4.67455 53.7358 4.52757 53.891 4.42418C54.0462 4.32079 54.2285 4.26562 54.4149 4.26562C54.6014 4.26562 54.7836 4.32079 54.9388 4.42418C55.094 4.52757 55.2151 4.67455 55.2869 4.84663L56.6659 8.12601L60.187 8.43108C60.373 8.44671 60.5502 8.5169 60.6965 8.63285C60.8427 8.7488 60.9515 8.90536 61.0091 9.08287C61.0667 9.26039 61.0707 9.45098 61.0204 9.63072C60.9702 9.81047 60.868 9.97138 60.7266 10.0933H60.7237Z" fill="#FFD233"/>
<path d="M80.1026 10.0933L77.431 12.4249L78.2313 15.8962C78.2736 16.0776 78.2615 16.2676 78.1965 16.4422C78.1315 16.6169 78.0165 16.7685 77.8658 16.8781C77.7151 16.9877 77.5354 17.0504 77.3493 17.0585C77.1631 17.0665 76.9787 17.0195 76.8191 16.9234L73.7914 15.087L70.7703 16.9234C70.6107 17.0195 70.4263 17.0665 70.2401 17.0585C70.054 17.0504 69.8743 16.9877 69.7236 16.8781C69.5729 16.7685 69.4579 16.6169 69.3929 16.4422C69.3279 16.2676 69.3158 16.0776 69.3581 15.8962L70.1572 12.4284L67.485 10.0933C67.3437 9.97138 67.2415 9.81047 67.1912 9.63072C67.141 9.45098 67.1449 9.26039 67.2026 9.08287C67.2602 8.90536 67.369 8.7488 67.5152 8.63285C67.6615 8.5169 67.8387 8.44671 68.0247 8.43108L71.5469 8.12601L72.9218 4.84663C72.9936 4.67455 73.1147 4.52757 73.2699 4.42418C73.4251 4.32079 73.6074 4.26562 73.7938 4.26562C73.9803 4.26562 74.1626 4.32079 74.3177 4.42418C74.4729 4.52757 74.594 4.67455 74.6658 4.84663L76.0448 8.12601L79.5659 8.43108C79.7519 8.44671 79.9291 8.5169 80.0754 8.63285C80.2216 8.7488 80.3304 8.90536 80.388 9.08287C80.4456 9.26039 80.4496 9.45098 80.3993 9.63072C80.3491 9.81047 80.2469 9.97138 80.1056 10.0933H80.1026Z" fill="#FFD233"/>
<path d="M99.4776 10.0933L96.806 12.4249L97.6063 15.8962C97.6486 16.0776 97.6365 16.2676 97.5715 16.4422C97.5065 16.6169 97.3915 16.7685 97.2408 16.8781C97.0901 16.9877 96.9104 17.0504 96.7243 17.0585C96.5381 17.0665 96.3537 17.0195 96.1941 16.9234L93.1664 15.087L90.1453 16.9234C89.9857 17.0195 89.8013 17.0665 89.6151 17.0585C89.429 17.0504 89.2493 16.9877 89.0986 16.8781C88.9479 16.7685 88.8329 16.6169 88.7679 16.4422C88.7029 16.2676 88.6908 16.0776 88.7331 15.8962L89.5322 12.4284L86.86 10.0933C86.7187 9.97138 86.6165 9.81047 86.5662 9.63072C86.516 9.45098 86.5199 9.26039 86.5776 9.08287C86.6352 8.90536 86.744 8.7488 86.8902 8.63285C87.0365 8.5169 87.2137 8.44671 87.3997 8.43108L90.9219 8.12601L92.2968 4.84663C92.3686 4.67455 92.4897 4.52757 92.6449 4.42418C92.8001 4.32079 92.9824 4.26562 93.1688 4.26562C93.3553 4.26562 93.5376 4.32079 93.6927 4.42418C93.8479 4.52757 93.969 4.67455 94.0408 4.84663L95.4198 8.12601L98.9409 8.43108C99.1269 8.44671 99.3041 8.5169 99.4504 8.63285C99.5966 8.7488 99.7054 8.90536 99.763 9.08287C99.8206 9.26039 99.8246 9.45098 99.7743 9.63072C99.7241 9.81047 99.6219 9.97138 99.4806 10.0933H99.4776Z" fill="#FFD233"/>
</svg>
