<svg width="69" height="69" viewBox="0 0 69 69" fill="none" xmlns="http://www.w3.org/2000/svg">
<rect width="69" height="69" rx="5" fill="#EBEBEB"/>
<path d="M59.3288 28.3214C59.1682 27.8108 58.8584 27.3601 58.4392 27.0274C58.02 26.6946 57.5107 26.4951 56.9771 26.4545L43.5079 25.29C43.3442 25.2748 43.1877 25.2153 43.0552 25.1179C42.9227 25.0205 42.8191 24.8889 42.7557 24.7372L37.4927 12.1969C37.287 11.7036 36.94 11.2822 36.4953 10.9858C36.0506 10.6894 35.5281 10.5312 34.9937 10.5312C34.4593 10.5312 33.9368 10.6894 33.4921 10.9858C33.0474 11.2822 32.7003 11.7036 32.4947 12.1969L27.2385 24.7372C27.175 24.8889 27.0715 25.0205 26.939 25.1179C26.8065 25.2153 26.65 25.2748 26.4863 25.29L13.0239 26.4545C12.4892 26.4984 11.9794 26.6994 11.5587 27.0324C11.138 27.3654 10.8253 27.8154 10.6598 28.3258C10.4944 28.8362 10.4837 29.3841 10.629 29.9006C10.7743 30.417 11.0692 30.879 11.4765 31.2282L21.6945 40.1434C21.8221 40.2527 21.9168 40.3954 21.968 40.5554C22.0192 40.7155 22.0249 40.8866 21.9845 41.0497L18.9146 54.3058C18.788 54.8289 18.8212 55.3779 19.0098 55.8819C19.1984 56.3859 19.5338 56.8218 19.9726 57.1333C20.4015 57.4501 20.9156 57.6308 21.4483 57.6522C21.9811 57.6736 22.508 57.5347 22.961 57.2534L34.5383 50.23C34.6773 50.1444 34.8373 50.0991 35.0005 50.0991C35.1637 50.0991 35.3237 50.1444 35.4627 50.23L47.04 57.2534C47.4977 57.5277 48.026 57.6613 48.559 57.6375C49.0921 57.6137 49.6063 57.4336 50.0377 57.1196C50.4691 56.8056 50.7986 56.3716 50.9851 55.8716C51.1716 55.3717 51.2068 54.8279 51.0864 54.3081L48.0233 41.0451C47.9829 40.882 47.9886 40.7109 48.0398 40.5509C48.091 40.3909 48.1857 40.2482 48.3133 40.1389L58.5313 31.2237C58.9379 30.8742 59.2311 30.4113 59.3732 29.8943C59.5152 29.3773 59.4998 28.8296 59.3288 28.3214ZM57.3396 29.862L47.1216 38.7772C46.7475 39.1018 46.4692 39.5223 46.3167 39.9935C46.1641 40.4646 46.1432 40.9685 46.2561 41.4507L49.3192 54.7091C49.362 54.8849 49.3512 55.0695 49.2882 55.239C49.2253 55.4086 49.113 55.5555 48.9658 55.6607C48.8245 55.7655 48.6548 55.8253 48.479 55.8321C48.3031 55.839 48.1293 55.7927 47.9803 55.6992L36.4029 48.6758C35.9806 48.4179 35.4953 48.2815 35.0005 48.2815C34.5057 48.2815 34.0204 48.4179 33.5981 48.6758L22.0207 55.6992C21.8716 55.7927 21.6978 55.839 21.522 55.8321C21.3462 55.8253 21.1765 55.7655 21.0352 55.6607C20.888 55.5555 20.7757 55.4086 20.7127 55.239C20.6497 55.0695 20.6389 54.8849 20.6817 54.7091L23.7449 41.4462C23.8578 40.964 23.8368 40.4601 23.6843 39.989C23.5318 39.5178 23.2535 39.0973 22.8794 38.7727L12.6614 29.862C12.5239 29.744 12.4249 29.5874 12.3772 29.4125C12.3296 29.2377 12.3354 29.0525 12.3941 28.881C12.4488 28.7123 12.5518 28.5633 12.6903 28.4526C12.8288 28.3418 12.9968 28.2741 13.1735 28.258L26.6426 27.0934C27.1352 27.0495 27.6064 26.8721 28.0056 26.5803C28.4048 26.2884 28.7169 25.8933 28.9082 25.4373L34.169 12.8948C34.2399 12.7339 34.3561 12.5972 34.5033 12.5012C34.6505 12.4052 34.8225 12.3541 34.9982 12.3541C35.174 12.3541 35.3459 12.4052 35.4932 12.5012C35.6404 12.5972 35.7565 12.7339 35.8274 12.8948L41.0882 25.4373C41.2795 25.8933 41.5916 26.2884 41.9908 26.5803C42.39 26.8721 42.8613 27.0495 43.3538 27.0934L56.823 28.258C56.9996 28.2741 57.1676 28.3418 57.3061 28.4526C57.4447 28.5633 57.5477 28.7123 57.6024 28.881C57.6615 29.0521 57.6681 29.2369 57.6213 29.4118C57.5744 29.5866 57.4763 29.7434 57.3396 29.862Z" fill="#545454"/>
</svg>
