<svg width="129" height="25" viewBox="0 0 129 25" fill="none" xmlns="http://www.w3.org/2000/svg">
<rect x="0.5" y="0.5" width="128" height="24" rx="3.5" fill="#F8F8F8" stroke="#EEEEEE"/>
<path d="M33.98 9.98L35.64 5L37.3 9.98H42.28L38.4067 13.3L40.0667 18.28L35.64 15.2367L31.2133 18.28L32.5967 13.3L29 9.98H33.98Z" fill="#FBBC04"/>
<path d="M74.5386 9.98L76.1986 5L77.8586 9.98H82.8386L78.9653 13.3L80.6253 18.28L76.1986 15.2367L71.7719 18.28L73.1553 13.3L69.5586 9.98H74.5386Z" fill="#FBBC04"/>
<path d="M54.2593 9.98L55.9193 5L57.5793 9.98H62.5593L58.686 13.3L60.346 18.28L55.9193 15.2367L51.4926 18.28L52.876 13.3L49.2793 9.98H54.2593Z" fill="#FBBC04"/>
<path d="M94.8179 9.98L96.4779 5L98.1379 9.98H103.118L99.2446 13.3L100.905 18.28L96.4779 15.2367L92.0512 18.28L93.4346 13.3L89.8379 9.98H94.8179Z" fill="#FBBC04"/>
<path d="M115.097 9.98L116.757 5L118.417 9.98H123.397L119.524 13.3L121.184 18.28L116.757 15.2367L112.331 18.28L113.714 13.3L110.117 9.98H115.097Z" fill="#FBBC04"/>
<path d="M12.5816 4.46593C14.3943 3.82807 16.3655 3.84561 18.1672 4.51564C19.1566 4.89535 20.0632 5.47158 20.8348 6.21125C20.5726 6.49878 20.296 6.7675 20.0286 7.04697C19.52 7.56739 19.0118 8.08601 18.5041 8.60285C17.9979 8.10663 17.3856 7.73855 16.7161 7.52797C15.8592 7.2628 14.9477 7.24465 14.0815 7.4755C13.2153 7.70635 12.4278 8.17728 11.8056 8.83663C11.2624 9.40301 10.851 10.0878 10.6022 10.8399L7.88477 8.68346C8.85744 6.70645 10.5416 5.19419 12.5816 4.46593Z" fill="#E33629"/>
<path d="M7.16254 10.8238C7.30849 10.0818 7.55099 9.36332 7.88352 8.6875L10.6009 10.8493C10.2456 11.9224 10.2456 13.0856 10.6009 14.1586C9.69557 14.8752 8.78976 15.5954 7.88352 16.3191C7.05132 14.6212 6.79751 12.6867 7.16254 10.8238Z" fill="#F8BD00"/>
<path d="M15.2916 10.9062H23.0939C23.3606 12.407 23.2884 13.9504 22.8828 15.418C22.5095 16.7676 21.7844 17.9874 20.7854 18.9463C19.9085 18.245 19.0276 17.549 18.1506 16.8476C18.5854 16.547 18.9565 16.1596 19.2416 15.7084C19.5268 15.2573 19.7202 14.7518 19.8101 14.2222H15.2916C15.2903 13.1178 15.2916 12.012 15.2916 10.9062Z" fill="#587DBD"/>
<path d="M7.88477 16.3246C8.79101 15.608 9.69682 14.8878 10.6022 14.1641C10.9525 15.2177 11.6186 16.1309 12.5056 16.7733C13.0587 17.1742 13.6873 17.4524 14.3513 17.5902C15.0055 17.7149 15.6765 17.7149 16.3307 17.5902C16.983 17.4772 17.605 17.2255 18.1567 16.8512C19.0337 17.5526 19.9146 18.2486 20.7915 18.9499C19.8318 19.8444 18.6619 20.468 17.3964 20.7598C15.9996 21.0963 14.5439 21.0802 13.1544 20.7127C12.0555 20.412 11.0291 19.8818 10.1395 19.1555C9.19789 18.3892 8.42882 17.4235 7.88477 16.3246Z" fill="#319F43"/>
</svg>
