<svg width="39" height="41" viewBox="0 0 39 41" fill="none" xmlns="http://www.w3.org/2000/svg">
<path d="M33.2917 6.61293C31.4963 4.79937 29.3577 3.36145 27.0008 2.38303C24.6439 1.40461 22.1157 0.905289 19.5637 0.914179C8.87125 0.914179 0.156667 9.62876 0.156667 20.3213C0.156667 23.7483 1.0575 27.0775 2.74167 30.015L0 40.0808L10.2813 37.3783C13.1208 38.9254 16.3129 39.7479 19.5637 39.7479C30.2563 39.7479 38.9708 31.0333 38.9708 20.3408C38.9708 15.1513 36.9538 10.275 33.2917 6.61293ZM19.5637 36.4579C16.6654 36.4579 13.8258 35.6746 11.3388 34.2058L10.7512 33.8533L4.64125 35.4592L6.26667 29.5058L5.875 28.8988C4.26475 26.3274 3.40973 23.3552 3.4075 20.3213C3.4075 11.4304 10.6533 4.1846 19.5442 4.1846C23.8525 4.1846 27.9063 5.86876 30.9417 8.92376C32.4447 10.4199 33.6357 12.1994 34.4459 14.1592C35.256 16.119 35.6691 18.2202 35.6613 20.3408C35.7004 29.2317 28.4546 36.4579 19.5637 36.4579ZM28.4154 24.3946C27.9258 24.1596 25.5367 22.9846 25.1058 22.8083C24.6554 22.6517 24.3421 22.5733 24.0092 23.0433C23.6763 23.5329 22.7558 24.6296 22.4817 24.9429C22.2075 25.2758 21.9137 25.315 21.4242 25.0604C20.9346 24.8254 19.3679 24.2967 17.5271 22.6517C16.0779 21.3592 15.1183 19.7729 14.8246 19.2833C14.5504 18.7938 14.7854 18.5392 15.04 18.2846C15.2554 18.0692 15.5296 17.7167 15.7646 17.4425C15.9996 17.1683 16.0975 16.9529 16.2542 16.6396C16.4108 16.3067 16.3325 16.0325 16.215 15.7975C16.0975 15.5625 15.1183 13.1733 14.7267 12.1942C14.335 11.2542 13.9238 11.3717 13.63 11.3521H12.69C12.3571 11.3521 11.8479 11.4696 11.3975 11.9592C10.9667 12.4488 9.71333 13.6238 9.71333 16.0129C9.71333 18.4021 11.4563 20.7129 11.6913 21.0263C11.9263 21.3592 15.1183 26.255 19.975 28.3504C21.1304 28.8596 22.0312 29.1533 22.7362 29.3688C23.8917 29.7408 24.9492 29.6821 25.7913 29.5646C26.7313 29.4275 28.67 28.3896 29.0617 27.2538C29.4729 26.1179 29.4729 25.1583 29.3358 24.9429C29.1988 24.7275 28.905 24.6296 28.4154 24.3946Z" fill="#F8F8F8"/>
</svg>
