<svg width="43" height="42" viewBox="0 0 43 42" fill="none" xmlns="http://www.w3.org/2000/svg">
<ellipse cx="21.5" cy="21" rx="21.5" ry="21" fill="#9668A8"/>
<path d="M30.6482 12.3466C29.5886 11.2816 28.3265 10.4372 26.9355 9.86262C25.5444 9.28807 24.0523 8.99485 22.5462 9.00007C16.2357 9.00007 11.0925 14.1176 11.0925 20.3965C11.0925 22.409 11.6241 24.364 12.6181 26.089L11 32L17.0678 30.413C18.7437 31.3215 20.6276 31.8045 22.5462 31.8045C28.8568 31.8045 34 26.687 34 20.408C34 17.3605 32.8095 14.4971 30.6482 12.3466ZM22.5462 29.8725C20.8357 29.8725 19.1598 29.4125 17.692 28.55L17.3452 28.343L13.7392 29.286L14.6985 25.79L14.4673 25.4335C13.517 23.9235 13.0124 22.1782 13.0111 20.3965C13.0111 15.1755 17.2874 10.9206 22.5347 10.9206C25.0774 10.9206 27.4698 11.9096 29.2613 13.7036C30.1483 14.5821 30.8513 15.6271 31.3294 16.778C31.8076 17.9289 32.0514 19.1627 32.0467 20.408C32.0698 25.629 27.7935 29.8725 22.5462 29.8725ZM27.7703 22.7885C27.4814 22.6505 26.0714 21.9605 25.8171 21.857C25.5513 21.765 25.3663 21.719 25.1698 21.995C24.9734 22.2825 24.4301 22.9265 24.2683 23.1105C24.1065 23.306 23.9332 23.329 23.6442 23.1795C23.3553 23.0415 22.4307 22.731 21.3442 21.765C20.4889 21.006 19.9226 20.0745 19.7492 19.787C19.5874 19.4995 19.7261 19.35 19.8764 19.2005C20.0035 19.074 20.1653 18.867 20.304 18.706C20.4427 18.545 20.5005 18.4185 20.593 18.2345C20.6854 18.039 20.6392 17.878 20.5698 17.74C20.5005 17.602 19.9226 16.199 19.6915 15.624C19.4603 15.0721 19.2176 15.1411 19.0442 15.1296H18.4894C18.293 15.1296 17.9925 15.1986 17.7266 15.486C17.4724 15.7735 16.7327 16.4635 16.7327 17.8665C16.7327 19.2695 17.7613 20.6265 17.9 20.8105C18.0387 21.006 19.9226 23.881 22.7889 25.1115C23.4709 25.4105 24.0025 25.583 24.4186 25.7095C25.1005 25.928 25.7246 25.8935 26.2216 25.8245C26.7764 25.744 27.9206 25.1345 28.1518 24.4675C28.3945 23.8005 28.3945 23.237 28.3136 23.1105C28.2327 22.984 28.0593 22.9265 27.7703 22.7885Z" fill="white"/>
</svg>
