<svg width="29" height="29" viewBox="0 0 29 29" fill="none" xmlns="http://www.w3.org/2000/svg">
<path d="M24.0833 4.12258C22.7845 2.81065 21.2375 1.77045 19.5325 1.06266C17.8275 0.354866 15.9986 -0.00634683 14.1525 8.43903e-05C6.4175 8.43903e-05 0.113334 6.30425 0.113334 14.0393C0.113334 16.5184 0.765 18.9268 1.98333 21.0518L0 28.3334L7.4375 26.3784C9.49167 27.4976 11.8008 28.0926 14.1525 28.0926C21.8875 28.0926 28.1917 21.7884 28.1917 14.0534C28.1917 10.2993 26.7325 6.77175 24.0833 4.12258ZM14.1525 25.7126C12.0558 25.7126 10.0017 25.1459 8.2025 24.0834L7.7775 23.8284L3.3575 24.9901L4.53333 20.6834L4.25 20.2443C3.08514 18.3841 2.46662 16.234 2.465 14.0393C2.465 7.60758 7.70667 2.36592 14.1383 2.36592C17.255 2.36592 20.1875 3.58425 22.3833 5.79425C23.4706 6.87653 24.3322 8.16386 24.9183 9.5816C25.5044 10.9994 25.8032 12.5193 25.7975 14.0534C25.8258 20.4851 20.5842 25.7126 14.1525 25.7126ZM20.5558 16.9859C20.2017 16.8159 18.4733 15.9659 18.1617 15.8384C17.8358 15.7251 17.6092 15.6684 17.3683 16.0084C17.1275 16.3626 16.4617 17.1559 16.2633 17.3826C16.065 17.6234 15.8525 17.6518 15.4983 17.4676C15.1442 17.2976 14.0108 16.9151 12.6792 15.7251C11.6308 14.7901 10.9367 13.6426 10.7242 13.2884C10.5258 12.9343 10.6958 12.7501 10.88 12.5659C11.0358 12.4101 11.2342 12.1551 11.4042 11.9568C11.5742 11.7584 11.645 11.6026 11.7583 11.3759C11.8717 11.1351 11.815 10.9368 11.73 10.7668C11.645 10.5968 10.9367 8.86842 10.6533 8.16009C10.37 7.48009 10.0725 7.56508 9.86 7.55092H9.18C8.93917 7.55092 8.57083 7.63592 8.245 7.99008C7.93333 8.34425 7.02667 9.19425 7.02667 10.9226C7.02667 12.6509 8.2875 14.3226 8.4575 14.5493C8.6275 14.7901 10.9367 18.3318 14.45 19.8476C15.2858 20.2159 15.9375 20.4284 16.4475 20.5843C17.2833 20.8534 18.0483 20.8109 18.6575 20.7259C19.3375 20.6268 20.74 19.8759 21.0233 19.0543C21.3208 18.2326 21.3208 17.5384 21.2217 17.3826C21.1225 17.2268 20.91 17.1559 20.5558 16.9859Z" fill="#56A88A"/>
</svg>
